<svg xmlns="http://www.w3.org/2000/svg" width="122.375" height="139.857" viewBox="0 0 122.375 139.857">
  <defs>
    <style>
      .cls-1 {
        fill: #fff;
      }
    </style>
  </defs>
  <path id="calculator" class="cls-1" d="M109.263,0H13.112A13.443,13.443,0,0,0,0,13.112V126.746a13.443,13.443,0,0,0,13.112,13.112h96.152a13.443,13.443,0,0,0,13.112-13.112V13.112A13.443,13.443,0,0,0,109.263,0Zm-74.3,118.879a3.76,3.76,0,0,1-3.5,3.5H20.979a3.76,3.76,0,0,1-3.5-3.5V108.389a3.76,3.76,0,0,1,3.5-3.5H31.468a3.76,3.76,0,0,1,3.5,3.5Zm0-34.964a3.76,3.76,0,0,1-3.5,3.5H20.979a3.76,3.76,0,0,1-3.5-3.5V73.425a3.76,3.76,0,0,1,3.5-3.5H31.468a3.76,3.76,0,0,1,3.5,3.5Zm34.964,34.964a3.76,3.76,0,0,1-3.5,3.5H55.943a3.76,3.76,0,0,1-3.5-3.5V108.389a3.76,3.76,0,0,1,3.5-3.5H66.432a3.76,3.76,0,0,1,3.5,3.5v10.489Zm0-34.964a3.76,3.76,0,0,1-3.5,3.5H55.943a3.76,3.76,0,0,1-3.5-3.5V73.425a3.76,3.76,0,0,1,3.5-3.5H66.432a3.76,3.76,0,0,1,3.5,3.5V83.914Zm34.964,34.964a3.76,3.76,0,0,1-3.5,3.5H90.907a3.76,3.76,0,0,1-3.5-3.5V73.425a3.76,3.76,0,0,1,3.5-3.5H101.4a3.76,3.76,0,0,1,3.5,3.5v45.454Zm0-69.929a3.76,3.76,0,0,1-3.5,3.5H20.979a3.76,3.76,0,0,1-3.5-3.5V20.979a3.76,3.76,0,0,1,3.5-3.5H101.4a3.76,3.76,0,0,1,3.5,3.5Z"/>
</svg>
