<svg xmlns="http://www.w3.org/2000/svg" width="25" height="18.75" viewBox="0 0 25 18.75">
  <path id="envelope" d="M24.526,70.191a.294.294,0,0,1,.474.229v9.985a2.344,2.344,0,0,1-2.344,2.344H2.344A2.344,2.344,0,0,1,0,80.406v-9.98A.292.292,0,0,1,.474,70.2c1.094.85,2.544,1.929,7.524,5.547,1.03.752,2.769,2.334,4.5,2.324,1.743.015,3.516-1.6,4.507-2.324C21.987,72.125,23.433,71.041,24.526,70.191ZM12.5,76.5c1.133.02,2.764-1.426,3.584-2.021,6.479-4.7,6.973-5.112,8.467-6.284A1.168,1.168,0,0,0,25,67.271v-.928A2.344,2.344,0,0,0,22.656,64H2.344A2.344,2.344,0,0,0,0,66.344v.928a1.176,1.176,0,0,0,.449.923c1.494,1.167,1.987,1.582,8.467,6.284C9.736,75.074,11.367,76.52,12.5,76.5Z" transform="translate(0 -64)" fill="#fff"/>
</svg>
