<svg xmlns="http://www.w3.org/2000/svg" width="24.098" height="24.098" viewBox="0 0 24.098 24.098">
  <path id="facebook-square" d="M21.516,32H2.582A2.582,2.582,0,0,0,0,34.582V53.516A2.582,2.582,0,0,0,2.582,56.1H9.965V47.905H6.576V44.049H9.965V41.11c0-3.343,1.99-5.19,5.039-5.19a20.53,20.53,0,0,1,2.986.26v3.281H16.308a1.928,1.928,0,0,0-2.174,2.083v2.5h3.7l-.592,3.856H14.133V56.1h7.383A2.582,2.582,0,0,0,24.1,53.516V34.582A2.582,2.582,0,0,0,21.516,32Z" transform="translate(0 -32)" fill="#3f88c0"/>
</svg>
