<svg xmlns="http://www.w3.org/2000/svg" width="24.111" height="24.106" viewBox="0 0 24.111 24.106">
  <path id="instagram" d="M11.983,37.7a6.18,6.18,0,1,0,6.18,6.18A6.171,6.171,0,0,0,11.983,37.7Zm0,10.2A4.018,4.018,0,1,1,16,43.878,4.025,4.025,0,0,1,11.983,47.9Zm7.875-10.451A1.442,1.442,0,1,1,18.417,36,1.438,1.438,0,0,1,19.858,37.445Zm4.093,1.463A7.134,7.134,0,0,0,22,33.857a7.181,7.181,0,0,0-5.051-1.947c-1.99-.113-7.956-.113-9.946,0a7.171,7.171,0,0,0-5.051,1.942A7.157,7.157,0,0,0,.01,38.9c-.113,1.99-.113,7.956,0,9.946A7.134,7.134,0,0,0,1.957,53.9a7.19,7.19,0,0,0,5.051,1.947c1.99.113,7.956.113,9.946,0A7.134,7.134,0,0,0,22,53.9a7.181,7.181,0,0,0,1.947-5.051C24.065,46.858,24.065,40.9,23.952,38.908ZM21.381,50.984a4.068,4.068,0,0,1-2.291,2.291c-1.587.629-5.352.484-7.106.484s-5.524.14-7.106-.484a4.068,4.068,0,0,1-2.291-2.291C1.957,49.4,2.1,45.632,2.1,43.878s-.14-5.524.484-7.106a4.068,4.068,0,0,1,2.291-2.291C6.465,33.852,10.23,34,11.983,34s5.524-.14,7.106.484a4.068,4.068,0,0,1,2.291,2.291c.629,1.587.484,5.352.484,7.106S22.01,49.4,21.381,50.984Z" transform="translate(0.075 -31.825)" fill="#3f88c0"/>
</svg>
