<svg xmlns="http://www.w3.org/2000/svg" width="260.685" height="84.914" viewBox="0 0 260.685 84.914">
  <g id="Layer_2" data-name="Layer 2" transform="translate(0.005)">
    <g id="Layer_1" data-name="Layer 1" transform="translate(0.28)">
      <path id="Path_94" data-name="Path 94" d="M466.286.07h28.848V55.718H438.57c3.34-9.057,20.1-54.487,20.273-54.845l17.818,49.784,8.591-.023S472.917,17.9,466.286.07Z" transform="translate(-295.622 -0.047)" fill="#3f88c0" fill-rule="evenodd"/>
      <path id="Path_95" data-name="Path 95" d="M184.55,0h95.536L258.462,55.648H184.55Zm14.334,50.664h7.945V5.088h-7.945Zm46.476-13.079a6.007,6.007,0,0,1-.874,3.323,6.252,6.252,0,0,1-2.316,2.13,10.851,10.851,0,0,1-3.261,1.1,20.326,20.326,0,0,1-3.686.326,29.68,29.68,0,0,1-6.3-.652,30.96,30.96,0,0,1-6.252-2.13v7.048a19.217,19.217,0,0,0,5.688,2.058,33.237,33.237,0,0,0,6.95.731,30.612,30.612,0,0,0,7.462-.848,16.5,16.5,0,0,0,5.786-2.609,11.927,11.927,0,0,0,3.689-4.442,14.631,14.631,0,0,0,1.3-6.373,13.129,13.129,0,0,0-1.141-5.871,10,10,0,0,0-3.076-3.718,15.108,15.108,0,0,0-4.462-2.234c-1.67-.535-3.431-1.011-5.267-1.419-1.164-.245-2.283-.522-3.31-.812a11.366,11.366,0,0,1-2.756-1.174,5.74,5.74,0,0,1-1.892-1.862,5.3,5.3,0,0,1-.7-2.873,5.144,5.144,0,0,1,2.123-4.5,10.379,10.379,0,0,1,6.044-1.5,29.468,29.468,0,0,1,5.822.626,36.47,36.47,0,0,1,6.464,2.035V6.8a28.835,28.835,0,0,0-6.04-1.849,34.657,34.657,0,0,0-6.954-.708,20.8,20.8,0,0,0-6.243.874,13.6,13.6,0,0,0-4.837,2.609,12.432,12.432,0,0,0-3.262,4.429,15.133,15.133,0,0,0-1.21,6.295,12.681,12.681,0,0,0,1.04,5.44,10.2,10.2,0,0,0,2.789,3.588,13.509,13.509,0,0,0,4.051,2.221,44.532,44.532,0,0,0,4.84,1.376c1.272.28,2.489.558,3.64.838a15.9,15.9,0,0,1,3.134,1.106,6.034,6.034,0,0,1,2.2,1.755A4.546,4.546,0,0,1,245.361,37.586Z" transform="translate(-124.45)" fill="#303562" fill-rule="evenodd"/>
      <path id="Path_96" data-name="Path 96" d="M3.241,198.075l.326-.065a6.891,6.891,0,0,0,.93-.29,2.074,2.074,0,0,0,.773-.525,2.42,2.42,0,0,0,.5-.913,4.788,4.788,0,0,0,.183-1.442,2.661,2.661,0,0,0-.594-1.915,2.094,2.094,0,0,0-1.559-.6H3.313a5.094,5.094,0,0,0-.515.059v11.741H.28V191.147c.267-.02.551-.039.864-.055s.633-.039.978-.052.675-.023,1-.042H4.1a6.689,6.689,0,0,1,1.99.261A3.711,3.711,0,0,1,7.485,192a2.893,2.893,0,0,1,.819,1.161,4.24,4.24,0,0,1,.271,1.552,4.8,4.8,0,0,1-.3,1.7,3.79,3.79,0,0,1-.91,1.4,4.348,4.348,0,0,1-1.575.933,6.8,6.8,0,0,1-2.283.326H3.395Z" transform="translate(-0.28 -128.703)" fill="#231f20"/>
      <path id="Path_97" data-name="Path 97" d="M33.086,204.293V192.636l-3.806-.059.127-1.327H39.436l-.124,1.285-3.7.1v11.657Z" transform="translate(-19.822 -128.874)" fill="#231f20"/>
      <path id="Path_98" data-name="Path 98" d="M66.057,221.44l1.67,1.742-1.67,1.755L64.4,223.182Z" transform="translate(-43.487 -149.217)" fill="#231f20"/>
      <rect id="Rectangle_83" data-name="Rectangle 83" width="2.515" height="13.043" transform="translate(30.208 62.376)" fill="#231f20"/>
      <path id="Path_99" data-name="Path 99" d="M114.046,198.675h-.851v5.375H110.68V191.03c.512-.039,1.086-.068,1.729-.095s1.249-.046,1.839-.046a5.7,5.7,0,0,1,3.415.864,3.138,3.138,0,0,1,1.168,2.7,4.647,4.647,0,0,1-.2,1.429,3.763,3.763,0,0,1-.525,1.063,3.461,3.461,0,0,1-.747.763,4.953,4.953,0,0,1-.894.522c.372.672.718,1.3,1.057,1.9a14.351,14.351,0,0,0,1,1.556,5.144,5.144,0,0,0,1.018,1.05,1.8,1.8,0,0,0,1.112.391h.085v.845a4.638,4.638,0,0,1-.688.166,5.4,5.4,0,0,1-.871.062,5.054,5.054,0,0,1-1.207-.127,2.374,2.374,0,0,1-1.008-.554,5.678,5.678,0,0,1-1.011-1.239,23.743,23.743,0,0,1-1.217-2.221Zm-.4-1.288a3.751,3.751,0,0,0,1.014-.137,2.312,2.312,0,0,0,.773-.326,1.631,1.631,0,0,0,.28-.251,1.454,1.454,0,0,0,.258-.411,2.766,2.766,0,0,0,.183-.652,5.606,5.606,0,0,0,.072-.995,3.561,3.561,0,0,0-.15-1.115,1.631,1.631,0,0,0-.444-.727,1.728,1.728,0,0,0-.74-.4,3.754,3.754,0,0,0-1-.121h-.346a2.191,2.191,0,0,0-.349.039v5.094Z" transform="translate(-74.673 -128.631)" fill="#231f20"/>
      <path id="Path_100" data-name="Path 100" d="M151.427,203.612l-1.471-4.4-4.667.072-1.5,4.328h-1.6L147.1,190.68l2.449-.44,4.566,13.372Zm-1.856-5.623-1.879-5.633-1.941,5.633Z" transform="translate(-95.906 -128.193)" fill="#231f20"/>
      <path id="Path_101" data-name="Path 101" d="M186.971,202.7c.085,0,.183.036.294.049s.232.023.359.033l.352.026h.277a10.458,10.458,0,0,0,1.888-.14,3.145,3.145,0,0,0,1.3-.548,2.8,2.8,0,0,0,.545-.577,3.614,3.614,0,0,0,.44-.907,7.5,7.5,0,0,0,.294-1.4,16.673,16.673,0,0,0,.108-2.061,7.312,7.312,0,0,0-.362-2.5,3.849,3.849,0,0,0-.978-1.536,3.464,3.464,0,0,0-1.442-.776,6.9,6.9,0,0,0-1.778-.219h-.326a1.948,1.948,0,0,0-.365.023l-.352.033-.271.036v10.453Zm-2.518-11.624.93-.091c.352-.033.727-.062,1.122-.085s.793-.046,1.194-.059.78-.02,1.125-.02a10.313,10.313,0,0,1,2.753.326,5.545,5.545,0,0,1,2.12,1.08,4.961,4.961,0,0,1,1.37,1.915,7.341,7.341,0,0,1,.486,2.818,10.455,10.455,0,0,1-.382,2.935,5.74,5.74,0,0,1-1.216,2.257A5.544,5.544,0,0,1,191.8,203.6a8.9,8.9,0,0,1-3.18.506h-1.1c-.382,0-.757-.026-1.125-.049l-1.057-.072c-.326-.026-.636-.049-.894-.078Z" transform="translate(-124.383 -128.581)" fill="#231f20"/>
      <path id="Path_102" data-name="Path 102" d="M235.591,204.293v-5.871h-5.607v5.871H227.47V191.25h2.515v5.711h5.607V191.25h2.531v13.043Z" transform="translate(-153.372 -128.874)" fill="#231f20"/>
      <rect id="Rectangle_84" data-name="Rectangle 84" width="2.515" height="13.043" transform="translate(88.041 62.376)" fill="#231f20"/>
      <path id="Path_103" data-name="Path 103" d="M303.477,200.174a3.231,3.231,0,0,1-.326,1.419,4.011,4.011,0,0,1-.978,1.3,4.924,4.924,0,0,1-1.536.933,5.358,5.358,0,0,1-2.016.362,7.828,7.828,0,0,1-1.106-.072,7.5,7.5,0,0,1-.978-.206,6.3,6.3,0,0,1-.855-.3c-.274-.117-.545-.248-.822-.388l.623-1.957a5.173,5.173,0,0,0,.714.395,8.373,8.373,0,0,0,.978.4,8.953,8.953,0,0,0,1.053.3,4.481,4.481,0,0,0,1.781.059,2.7,2.7,0,0,0,.574-.179.894.894,0,0,0,.457-.564,3.449,3.449,0,0,0,.166-1.174,1.363,1.363,0,0,0-.437-1.063,4.08,4.08,0,0,0-1.1-.685c-.437-.192-.91-.388-1.419-.581a6.586,6.586,0,0,1-1.425-.747,3.859,3.859,0,0,1-1.1-1.184,3.588,3.588,0,0,1-.437-1.892,2.808,2.808,0,0,1,.3-1.194,3.89,3.89,0,0,1,.861-1.164,4.491,4.491,0,0,1,1.4-.868,5,5,0,0,1,1.9-.326,15.507,15.507,0,0,1,1.631.085c.525.055,1.034.13,1.52.225l-.395,1.941a7.21,7.21,0,0,0-.75-.232c-.29-.078-.577-.14-.877-.2s-.59-.1-.871-.134a5.974,5.974,0,0,0-.747-.049,6.281,6.281,0,0,0-.682.033,1.383,1.383,0,0,0-.564.192.819.819,0,0,0-.349.489,2.8,2.8,0,0,0-.1.825,1.3,1.3,0,0,0,.254.822,2.348,2.348,0,0,0,.672.574,6.726,6.726,0,0,0,.946.45c.359.14.721.284,1.093.44a9.642,9.642,0,0,1,1.089.538,4.047,4.047,0,0,1,.946.75,3.314,3.314,0,0,1,.672,1.083,4.142,4.142,0,0,1,.245,1.533Z" transform="translate(-198.783 -128.574)" fill="#231f20"/>
      <path id="Path_104" data-name="Path 104" d="M339.83,197.437a9.269,9.269,0,0,1-.391,2.785,5.57,5.57,0,0,1-1.174,2.13,5.124,5.124,0,0,1-1.957,1.357,7.329,7.329,0,0,1-2.73.473,7.045,7.045,0,0,1-2.746-.483,4.778,4.778,0,0,1-1.875-1.36,5.773,5.773,0,0,1-1.07-2.13,10.189,10.189,0,0,1-.349-2.772,9.816,9.816,0,0,1,.352-2.753,5.544,5.544,0,0,1,1.1-2.087,4.844,4.844,0,0,1,1.888-1.321,7.27,7.27,0,0,1,2.714-.46,7.449,7.449,0,0,1,2.74.46,5.1,5.1,0,0,1,1.957,1.321,5.545,5.545,0,0,1,1.164,2.087,9.008,9.008,0,0,1,.391,2.753Zm-2.661,0a10.172,10.172,0,0,0-.2-2.14,4.687,4.687,0,0,0-.652-1.6,2.935,2.935,0,0,0-1.115-1,3.509,3.509,0,0,0-1.614-.346,6.008,6.008,0,0,0-1.526.179,2.935,2.935,0,0,0-1.115.5,2.334,2.334,0,0,0-.6,1.432,17.873,17.873,0,0,0-.2,2.984,12.476,12.476,0,0,0,.17,2.13,5.293,5.293,0,0,0,.568,1.631,2.8,2.8,0,0,0,1.05,1.066,3.261,3.261,0,0,0,1.631.375,6.324,6.324,0,0,0,1.657-.183,3.679,3.679,0,0,0,1.1-.5,1.057,1.057,0,0,0,.368-.568,5.87,5.87,0,0,0,.264-1.037q.1-.616.157-1.37C337.146,198.494,337.169,197.972,337.169,197.437Z" transform="translate(-220.802 -128.58)" fill="#231f20"/>
      <path id="Path_105" data-name="Path 105" d="M374.2,204.293V191.25h2.515v11.67h4.713l-.13,1.373Z" transform="translate(-252.246 -128.874)" fill="#231f20"/>
      <path id="Path_106" data-name="Path 106" d="M413.7,199.694a4.751,4.751,0,0,1-.362,1.846,4.24,4.24,0,0,1-1.066,1.52,5.1,5.1,0,0,1-1.761,1.034,7.071,7.071,0,0,1-2.44.382,8.22,8.22,0,0,1-2.068-.241,4.006,4.006,0,0,1-1.572-.783,3.51,3.51,0,0,1-1.014-1.422,5.724,5.724,0,0,1-.352-2.149v-8.63h2.515v8.884a5.725,5.725,0,0,0,.17,1.546,1.869,1.869,0,0,0,.512.884,1.631,1.631,0,0,0,.838.4,6.162,6.162,0,0,0,1.155.091,5,5,0,0,0,1.383-.166,3.177,3.177,0,0,0,.956-.457,1.262,1.262,0,0,0,.492-.887,9.028,9.028,0,0,0,.1-1.474V191.25H413.7Z" transform="translate(-271.695 -128.874)" fill="#231f20"/>
      <path id="Path_107" data-name="Path 107" d="M450.751,200.208a3.262,3.262,0,0,1-.326,1.419,4.025,4.025,0,0,1-.978,1.3,4.926,4.926,0,0,1-1.536.933,5.329,5.329,0,0,1-2.012.362,7.83,7.83,0,0,1-1.106-.072,7.392,7.392,0,0,1-.956-.189,6.14,6.14,0,0,1-.855-.3c-.277-.117-.548-.248-.822-.388l.623-1.957a4.991,4.991,0,0,0,.714.395,8.37,8.37,0,0,0,.978.4,8.723,8.723,0,0,0,1.05.3,4.364,4.364,0,0,0,.978.121,4.277,4.277,0,0,0,.812-.062,2.757,2.757,0,0,0,.574-.179.881.881,0,0,0,.453-.564,3.441,3.441,0,0,0,.17-1.174,1.357,1.357,0,0,0-.44-1.063,4.059,4.059,0,0,0-1.1-.685c-.44-.192-.913-.388-1.419-.581a6.584,6.584,0,0,1-1.425-.747,3.819,3.819,0,0,1-1.1-1.184,3.588,3.588,0,0,1-.44-1.892,2.769,2.769,0,0,1,.3-1.194,3.891,3.891,0,0,1,.861-1.164,4.491,4.491,0,0,1,1.4-.868,5,5,0,0,1,1.9-.326,15.442,15.442,0,0,1,1.631.085c.528.055,1.034.13,1.523.225l-.4,1.941a7.146,7.146,0,0,0-.766-.241c-.29-.078-.581-.14-.881-.2s-.587-.1-.868-.134a5.986,5.986,0,0,0-.75-.049,6.233,6.233,0,0,0-.678.033,1.4,1.4,0,0,0-.568.192.828.828,0,0,0-.346.489,2.8,2.8,0,0,0-.108.825,1.3,1.3,0,0,0,.258.822,2.348,2.348,0,0,0,.672.574,6.555,6.555,0,0,0,.946.45c.355.14.718.284,1.089.44a9.968,9.968,0,0,1,1.093.538,4.117,4.117,0,0,1,.946.75,3.314,3.314,0,0,1,.672,1.083A4.145,4.145,0,0,1,450.751,200.208Z" transform="translate(-298.041 -128.608)" fill="#231f20"/>
      <rect id="Rectangle_85" data-name="Rectangle 85" width="2.515" height="13.043" transform="translate(155.124 62.376)" fill="#231f20"/>
      <path id="Path_108" data-name="Path 108" d="M503.826,204.2l-8.757-9.155h-.029q.029,1.145.059,2.11c0,.271.02.545.023.822s0,.522,0,.753v5.4H493.65V191h1.1l8.757,9.113q0-1.04-.029-1.957v-7.061h1.487v13.1Z" transform="translate(-332.737 -128.705)" fill="#231f20"/>
      <path id="Path_109" data-name="Path 109" d="M540.875,202.7c.088,0,.186.036.3.049s.232.023.356.033l.352.026h.277a10.46,10.46,0,0,0,1.888-.14,3.115,3.115,0,0,0,1.3-.548,2.815,2.815,0,0,0,.548-.577,3.617,3.617,0,0,0,.437-.907,7.213,7.213,0,0,0,.3-1.4,16.744,16.744,0,0,0,.1-2.061,7.313,7.313,0,0,0-.362-2.5,3.777,3.777,0,0,0-.978-1.536,3.45,3.45,0,0,0-1.438-.776,6.9,6.9,0,0,0-1.778-.219h-.326a1.981,1.981,0,0,0-.369.023l-.352.033-.271.036v10.453Zm-2.515-11.624c.264-.029.574-.055.926-.091s.731-.062,1.125-.085.792-.046,1.194-.059.776-.02,1.125-.02a10.329,10.329,0,0,1,2.753.326,5.544,5.544,0,0,1,2.12,1.08,4.953,4.953,0,0,1,1.37,1.915,7.276,7.276,0,0,1,.489,2.818,10.578,10.578,0,0,1-.382,2.935,5.784,5.784,0,0,1-1.217,2.257,5.545,5.545,0,0,1-2.149,1.445,8.927,8.927,0,0,1-3.183.506h-1.1c-.382,0-.757-.026-1.125-.049l-1.057-.072c-.342-.026-.652-.049-.894-.078Z" transform="translate(-362.865 -128.581)" fill="#231f20"/>
      <path id="Path_110" data-name="Path 110" d="M592.528,197.437a9.271,9.271,0,0,1-.391,2.785,5.61,5.61,0,0,1-1.171,2.13,5.16,5.16,0,0,1-1.957,1.357,7.329,7.329,0,0,1-2.73.473,7.045,7.045,0,0,1-2.746-.483,4.779,4.779,0,0,1-1.875-1.36,5.773,5.773,0,0,1-1.07-2.13,10.316,10.316,0,0,1-.349-2.772,9.939,9.939,0,0,1,.352-2.753,5.544,5.544,0,0,1,1.1-2.087,4.843,4.843,0,0,1,1.888-1.321,7.27,7.27,0,0,1,2.713-.46,7.449,7.449,0,0,1,2.74.46,5.132,5.132,0,0,1,1.957,1.321,5.568,5.568,0,0,1,1.161,2.087,9.012,9.012,0,0,1,.391,2.753Zm-2.661,0a10.17,10.17,0,0,0-.2-2.14,4.687,4.687,0,0,0-.652-1.6,2.935,2.935,0,0,0-1.115-1,3.509,3.509,0,0,0-1.631-.346,6.007,6.007,0,0,0-1.526.179,2.935,2.935,0,0,0-1.115.5,2.334,2.334,0,0,0-.6,1.432,17.93,17.93,0,0,0-.192,2.984,12.484,12.484,0,0,0,.166,2.13,5.3,5.3,0,0,0,.567,1.631,2.8,2.8,0,0,0,1.05,1.066,3.261,3.261,0,0,0,1.631.375,6.324,6.324,0,0,0,1.657-.183,3.639,3.639,0,0,0,1.125-.492,1.057,1.057,0,0,0,.369-.567,5.865,5.865,0,0,0,.264-1.037q.1-.616.157-1.37C589.853,198.494,589.866,197.972,589.866,197.437Z" transform="translate(-391.084 -128.58)" fill="#231f20"/>
      <path id="Path_111" data-name="Path 111" d="M642.074,203.612l-1.458-4.4-4.67.072-1.5,4.328h-1.6l4.892-12.932,2.449-.44,4.566,13.372Zm-1.856-5.623-1.879-5.633-1.941,5.633Z" transform="translate(-426.537 -128.193)" fill="#231f20"/>
      <path id="Path_112" data-name="Path 112" d="M683.772,200.618a4.035,4.035,0,0,1-.277,1.546,2.858,2.858,0,0,1-.848,1.148,3.826,3.826,0,0,1-1.448.724,7.73,7.73,0,0,1-2.094.248h-.92c-.352,0-.711-.02-1.083-.036s-.734-.039-1.086-.062-.652-.059-.926-.088V191.2c.5-.055,1.07-.095,1.709-.124s1.246-.042,1.81-.042a9.026,9.026,0,0,1,1.882.176,4.386,4.386,0,0,1,1.451.551,2.668,2.668,0,0,1,.926.978,2.873,2.873,0,0,1,.326,1.409,3.443,3.443,0,0,1-.183,1.168,2.994,2.994,0,0,1-.489.874,2.41,2.41,0,0,1-.714.61,3.662,3.662,0,0,1-.848.349v.042a3.915,3.915,0,0,1,1.279.479,3.069,3.069,0,0,1,.867.77,2.969,2.969,0,0,1,.5,1,4.175,4.175,0,0,1,.166,1.194Zm-3.141-6.2a1.926,1.926,0,0,0-.626-1.631,3,3,0,0,0-1.778-.46H677.9a1.178,1.178,0,0,0-.29.023v4.211h.835a4.532,4.532,0,0,0,.881-.088,2.283,2.283,0,0,0,.675-.212.978.978,0,0,0,.225-.189,1.143,1.143,0,0,0,.209-.326,2.653,2.653,0,0,0,.147-.541,4.9,4.9,0,0,0,.055-.793Zm.567,6.057a2.465,2.465,0,0,0-.717-1.924,2.99,2.99,0,0,0-2.084-.652H677.6v5.006l.192.023h.74a4.5,4.5,0,0,0,.5-.02c.176-.02.362-.033.541-.055a4.269,4.269,0,0,0,.476-.091,1.721,1.721,0,0,0,.349-.13,1.893,1.893,0,0,0,.271-.225,1.665,1.665,0,0,0,.261-.388,2.579,2.579,0,0,0,.186-.623A5.049,5.049,0,0,0,681.2,200.477Z" transform="translate(-455.001 -128.724)" fill="#231f20"/>
      <path id="Path_113" data-name="Path 113" d="M714.084,203.612l-1.461-4.4-4.667.072-1.5,4.328h-1.6l4.892-12.932,2.449-.44,4.566,13.372Zm-1.856-5.623-1.879-5.633-1.957,5.633Z" transform="translate(-475.061 -128.193)" fill="#231f20"/>
      <path id="Path_114" data-name="Path 114" d="M749.608,202.7c.085,0,.183.036.294.049s.232.023.359.033l.352.026h.28a10.439,10.439,0,0,0,1.885-.14,3.145,3.145,0,0,0,1.3-.548,2.807,2.807,0,0,0,.545-.577,3.614,3.614,0,0,0,.44-.907,7.511,7.511,0,0,0,.294-1.4,16.684,16.684,0,0,0,.108-2.061,7.314,7.314,0,0,0-.362-2.5,3.849,3.849,0,0,0-.978-1.536,3.464,3.464,0,0,0-1.442-.776,6.9,6.9,0,0,0-1.777-.219h-.326a1.946,1.946,0,0,0-.365.023l-.352.033-.271.036v10.453Zm-2.518-11.624.93-.091c.352-.033.727-.062,1.122-.085s.793-.046,1.194-.059.78-.02,1.125-.02a10.313,10.313,0,0,1,2.753.326,5.544,5.544,0,0,1,2.12,1.08,4.929,4.929,0,0,1,1.373,1.915,7.341,7.341,0,0,1,.486,2.818,10.457,10.457,0,0,1-.382,2.935,5.741,5.741,0,0,1-1.217,2.257,5.544,5.544,0,0,1-2.149,1.445,8.9,8.9,0,0,1-3.18.506h-1.1c-.382,0-.757-.026-1.125-.049l-1.057-.072c-.342-.026-.652-.049-.894-.078Z" transform="translate(-503.518 -128.581)" fill="#231f20"/>
      <rect id="Rectangle_86" data-name="Rectangle 86" width="2.515" height="13.043" transform="translate(257.6 62.376)" fill="#231f20"/>
      <path id="Path_115" data-name="Path 115" d="M3.241,198.075l.326-.065a6.891,6.891,0,0,0,.93-.29,2.074,2.074,0,0,0,.773-.525,2.42,2.42,0,0,0,.5-.913,4.788,4.788,0,0,0,.183-1.442,2.661,2.661,0,0,0-.594-1.915,2.094,2.094,0,0,0-1.559-.6H3.313a5.094,5.094,0,0,0-.515.059v11.741H.28V191.147c.267-.02.551-.039.864-.055s.633-.039.978-.052.675-.023,1-.042H4.1a6.689,6.689,0,0,1,1.99.261A3.711,3.711,0,0,1,7.485,192a2.893,2.893,0,0,1,.819,1.161,4.24,4.24,0,0,1,.271,1.552,4.8,4.8,0,0,1-.3,1.7,3.79,3.79,0,0,1-.91,1.4,4.348,4.348,0,0,1-1.575.933,6.8,6.8,0,0,1-2.283.326H3.395Z" transform="translate(-0.28 -128.703)" fill="none" stroke="#231f20" stroke-miterlimit="22.93" stroke-width="0.57"/>
      <path id="Path_116" data-name="Path 116" d="M33.086,204.293V192.636l-3.806-.059.127-1.327H39.436l-.124,1.285-3.7.1v11.657Z" transform="translate(-19.822 -128.874)" fill="none" stroke="#231f20" stroke-miterlimit="22.93" stroke-width="0.57"/>
      <path id="Path_117" data-name="Path 117" d="M66.057,221.44l1.67,1.742-1.67,1.755L64.4,223.182Z" transform="translate(-43.487 -149.217)" fill="none" stroke="#231f20" stroke-miterlimit="22.93" stroke-width="0.57"/>
      <rect id="Rectangle_87" data-name="Rectangle 87" width="2.515" height="13.043" transform="translate(30.208 62.376)" fill="none" stroke="#231f20" stroke-miterlimit="22.93" stroke-width="0.57"/>
      <path id="Path_118" data-name="Path 118" d="M114.046,198.675h-.851v5.375H110.68V191.03c.512-.039,1.086-.068,1.729-.095s1.249-.046,1.839-.046a5.7,5.7,0,0,1,3.415.864,3.138,3.138,0,0,1,1.168,2.7,4.647,4.647,0,0,1-.2,1.429,3.763,3.763,0,0,1-.525,1.063,3.461,3.461,0,0,1-.747.763,4.953,4.953,0,0,1-.894.522c.372.672.718,1.3,1.057,1.9a14.351,14.351,0,0,0,1,1.556,5.144,5.144,0,0,0,1.018,1.05,1.8,1.8,0,0,0,1.112.391h.085v.845a4.638,4.638,0,0,1-.688.166,5.4,5.4,0,0,1-.871.062,5.054,5.054,0,0,1-1.207-.127,2.374,2.374,0,0,1-1.008-.554,5.678,5.678,0,0,1-1.011-1.239,23.743,23.743,0,0,1-1.217-2.221Zm-.4-1.288a3.751,3.751,0,0,0,1.014-.137,2.312,2.312,0,0,0,.773-.326,1.631,1.631,0,0,0,.28-.251,1.454,1.454,0,0,0,.258-.411,2.766,2.766,0,0,0,.183-.652,5.606,5.606,0,0,0,.072-.995,3.561,3.561,0,0,0-.15-1.115,1.631,1.631,0,0,0-.444-.727,1.728,1.728,0,0,0-.74-.4,3.754,3.754,0,0,0-1-.121h-.346a2.191,2.191,0,0,0-.349.039v5.094Z" transform="translate(-74.673 -128.631)" fill="none" stroke="#231f20" stroke-miterlimit="22.93" stroke-width="0.57"/>
      <path id="Path_119" data-name="Path 119" d="M151.427,203.612l-1.471-4.4-4.667.072-1.5,4.328h-1.6L147.1,190.68l2.449-.44,4.566,13.372Zm-1.856-5.623-1.879-5.633-1.941,5.633Z" transform="translate(-95.906 -128.193)" fill="none" stroke="#231f20" stroke-miterlimit="22.93" stroke-width="0.57"/>
      <path id="Path_120" data-name="Path 120" d="M186.971,202.7c.085,0,.183.036.294.049s.232.023.359.033l.352.026h.277a10.458,10.458,0,0,0,1.888-.14,3.145,3.145,0,0,0,1.3-.548,2.8,2.8,0,0,0,.545-.577,3.614,3.614,0,0,0,.44-.907,7.5,7.5,0,0,0,.294-1.4,16.673,16.673,0,0,0,.108-2.061,7.312,7.312,0,0,0-.362-2.5,3.849,3.849,0,0,0-.978-1.536,3.464,3.464,0,0,0-1.442-.776,6.9,6.9,0,0,0-1.778-.219h-.326a1.948,1.948,0,0,0-.365.023l-.352.033-.271.036v10.453Zm-2.518-11.624.93-.091c.352-.033.727-.062,1.122-.085s.793-.046,1.194-.059.78-.02,1.125-.02a10.313,10.313,0,0,1,2.753.326,5.545,5.545,0,0,1,2.12,1.08,4.961,4.961,0,0,1,1.37,1.915,7.341,7.341,0,0,1,.486,2.818,10.455,10.455,0,0,1-.382,2.935,5.74,5.74,0,0,1-1.216,2.257A5.544,5.544,0,0,1,191.8,203.6a8.9,8.9,0,0,1-3.18.506h-1.1c-.382,0-.757-.026-1.125-.049l-1.057-.072c-.326-.026-.636-.049-.894-.078Z" transform="translate(-124.383 -128.581)" fill="none" stroke="#231f20" stroke-miterlimit="22.93" stroke-width="0.57"/>
      <path id="Path_121" data-name="Path 121" d="M235.591,204.293v-5.871h-5.607v5.871H227.47V191.25h2.515v5.711h5.607V191.25h2.531v13.043Z" transform="translate(-153.372 -128.874)" fill="none" stroke="#231f20" stroke-miterlimit="22.93" stroke-width="0.57"/>
      <rect id="Rectangle_88" data-name="Rectangle 88" width="2.515" height="13.043" transform="translate(88.041 62.376)" fill="none" stroke="#231f20" stroke-miterlimit="22.93" stroke-width="0.57"/>
      <path id="Path_122" data-name="Path 122" d="M303.477,200.174a3.231,3.231,0,0,1-.326,1.419,4.011,4.011,0,0,1-.978,1.3,4.924,4.924,0,0,1-1.536.933,5.358,5.358,0,0,1-2.016.362,7.828,7.828,0,0,1-1.106-.072,7.5,7.5,0,0,1-.978-.206,6.3,6.3,0,0,1-.855-.3c-.274-.117-.545-.248-.822-.388l.623-1.957a5.173,5.173,0,0,0,.714.395,8.373,8.373,0,0,0,.978.4,8.953,8.953,0,0,0,1.053.3,4.481,4.481,0,0,0,1.781.059,2.7,2.7,0,0,0,.574-.179.894.894,0,0,0,.457-.564,3.449,3.449,0,0,0,.166-1.174,1.363,1.363,0,0,0-.437-1.063,4.08,4.08,0,0,0-1.1-.685c-.437-.192-.91-.388-1.419-.581a6.586,6.586,0,0,1-1.425-.747,3.859,3.859,0,0,1-1.1-1.184,3.588,3.588,0,0,1-.437-1.892,2.808,2.808,0,0,1,.3-1.194,3.89,3.89,0,0,1,.861-1.164,4.491,4.491,0,0,1,1.4-.868,5,5,0,0,1,1.9-.326,15.507,15.507,0,0,1,1.631.085c.525.055,1.034.13,1.52.225l-.395,1.941a7.21,7.21,0,0,0-.75-.232c-.29-.078-.577-.14-.877-.2s-.59-.1-.871-.134a5.974,5.974,0,0,0-.747-.049,6.281,6.281,0,0,0-.682.033,1.383,1.383,0,0,0-.564.192.819.819,0,0,0-.349.489,2.8,2.8,0,0,0-.1.825,1.3,1.3,0,0,0,.254.822,2.348,2.348,0,0,0,.672.574,6.726,6.726,0,0,0,.946.45c.359.14.721.284,1.093.44a9.642,9.642,0,0,1,1.089.538,4.047,4.047,0,0,1,.946.75,3.314,3.314,0,0,1,.672,1.083,4.142,4.142,0,0,1,.245,1.533Z" transform="translate(-198.783 -128.574)" fill="none" stroke="#231f20" stroke-miterlimit="22.93" stroke-width="0.57"/>
      <path id="Path_123" data-name="Path 123" d="M339.83,197.437a9.269,9.269,0,0,1-.391,2.785,5.57,5.57,0,0,1-1.174,2.13,5.124,5.124,0,0,1-1.957,1.357,7.329,7.329,0,0,1-2.73.473,7.045,7.045,0,0,1-2.746-.483,4.778,4.778,0,0,1-1.875-1.36,5.773,5.773,0,0,1-1.07-2.13,10.189,10.189,0,0,1-.349-2.772,9.816,9.816,0,0,1,.352-2.753,5.544,5.544,0,0,1,1.1-2.087,4.844,4.844,0,0,1,1.888-1.321,7.27,7.27,0,0,1,2.714-.46,7.449,7.449,0,0,1,2.74.46,5.1,5.1,0,0,1,1.957,1.321,5.545,5.545,0,0,1,1.164,2.087,9.008,9.008,0,0,1,.391,2.753Zm-2.661,0a10.172,10.172,0,0,0-.2-2.14,4.687,4.687,0,0,0-.652-1.6,2.935,2.935,0,0,0-1.115-1,3.509,3.509,0,0,0-1.614-.346,6.008,6.008,0,0,0-1.526.179,2.935,2.935,0,0,0-1.115.5,2.334,2.334,0,0,0-.6,1.432,17.873,17.873,0,0,0-.2,2.984,12.476,12.476,0,0,0,.17,2.13,5.293,5.293,0,0,0,.568,1.631,2.8,2.8,0,0,0,1.05,1.066,3.261,3.261,0,0,0,1.631.375,6.324,6.324,0,0,0,1.657-.183,3.679,3.679,0,0,0,1.1-.5,1.057,1.057,0,0,0,.368-.568,5.87,5.87,0,0,0,.264-1.037q.1-.616.157-1.37C337.146,198.494,337.169,197.972,337.169,197.437Z" transform="translate(-220.802 -128.58)" fill="none" stroke="#231f20" stroke-miterlimit="22.93" stroke-width="0.57"/>
      <path id="Path_124" data-name="Path 124" d="M374.2,204.293V191.25h2.515v11.67h4.713l-.13,1.373Z" transform="translate(-252.246 -128.874)" fill="none" stroke="#231f20" stroke-miterlimit="22.93" stroke-width="0.57"/>
      <path id="Path_125" data-name="Path 125" d="M413.7,199.694a4.751,4.751,0,0,1-.362,1.846,4.24,4.24,0,0,1-1.066,1.52,5.1,5.1,0,0,1-1.761,1.034,7.071,7.071,0,0,1-2.44.382,8.22,8.22,0,0,1-2.068-.241,4.006,4.006,0,0,1-1.572-.783,3.51,3.51,0,0,1-1.014-1.422,5.724,5.724,0,0,1-.352-2.149v-8.63h2.515v8.884a5.725,5.725,0,0,0,.17,1.546,1.869,1.869,0,0,0,.512.884,1.631,1.631,0,0,0,.838.4,6.162,6.162,0,0,0,1.155.091,5,5,0,0,0,1.383-.166,3.177,3.177,0,0,0,.956-.457,1.262,1.262,0,0,0,.492-.887,9.028,9.028,0,0,0,.1-1.474V191.25H413.7Z" transform="translate(-271.695 -128.874)" fill="none" stroke="#231f20" stroke-miterlimit="22.93" stroke-width="0.57"/>
      <path id="Path_126" data-name="Path 126" d="M450.751,200.208a3.262,3.262,0,0,1-.326,1.419,4.025,4.025,0,0,1-.978,1.3,4.926,4.926,0,0,1-1.536.933,5.329,5.329,0,0,1-2.012.362,7.83,7.83,0,0,1-1.106-.072,7.392,7.392,0,0,1-.956-.189,6.14,6.14,0,0,1-.855-.3c-.277-.117-.548-.248-.822-.388l.623-1.957a4.991,4.991,0,0,0,.714.395,8.37,8.37,0,0,0,.978.4,8.723,8.723,0,0,0,1.05.3,4.364,4.364,0,0,0,.978.121,4.277,4.277,0,0,0,.812-.062,2.757,2.757,0,0,0,.574-.179.881.881,0,0,0,.453-.564,3.441,3.441,0,0,0,.17-1.174,1.357,1.357,0,0,0-.44-1.063,4.059,4.059,0,0,0-1.1-.685c-.44-.192-.913-.388-1.419-.581a6.584,6.584,0,0,1-1.425-.747,3.819,3.819,0,0,1-1.1-1.184,3.588,3.588,0,0,1-.44-1.892,2.769,2.769,0,0,1,.3-1.194,3.891,3.891,0,0,1,.861-1.164,4.491,4.491,0,0,1,1.4-.868,5,5,0,0,1,1.9-.326,15.442,15.442,0,0,1,1.631.085c.528.055,1.034.13,1.523.225l-.4,1.941a7.146,7.146,0,0,0-.766-.241c-.29-.078-.581-.14-.881-.2s-.587-.1-.868-.134a5.986,5.986,0,0,0-.75-.049,6.233,6.233,0,0,0-.678.033,1.4,1.4,0,0,0-.568.192.828.828,0,0,0-.346.489,2.8,2.8,0,0,0-.108.825,1.3,1.3,0,0,0,.258.822,2.348,2.348,0,0,0,.672.574,6.555,6.555,0,0,0,.946.45c.355.14.718.284,1.089.44a9.968,9.968,0,0,1,1.093.538,4.117,4.117,0,0,1,.946.75,3.314,3.314,0,0,1,.672,1.083A4.145,4.145,0,0,1,450.751,200.208Z" transform="translate(-298.041 -128.608)" fill="none" stroke="#231f20" stroke-miterlimit="22.93" stroke-width="0.57"/>
      <rect id="Rectangle_89" data-name="Rectangle 89" width="2.515" height="13.043" transform="translate(155.124 62.376)" fill="none" stroke="#231f20" stroke-miterlimit="22.93" stroke-width="0.57"/>
      <path id="Path_127" data-name="Path 127" d="M503.826,204.2l-8.757-9.155h-.029q.029,1.145.059,2.11c0,.271.02.545.023.822s0,.522,0,.753v5.4H493.65V191h1.1l8.757,9.113q0-1.04-.029-1.957v-7.061h1.487v13.1Z" transform="translate(-332.737 -128.705)" fill="none" stroke="#231f20" stroke-miterlimit="22.93" stroke-width="0.57"/>
      <path id="Path_128" data-name="Path 128" d="M540.875,202.7c.088,0,.186.036.3.049s.232.023.356.033l.352.026h.277a10.46,10.46,0,0,0,1.888-.14,3.115,3.115,0,0,0,1.3-.548,2.815,2.815,0,0,0,.548-.577,3.617,3.617,0,0,0,.437-.907,7.213,7.213,0,0,0,.3-1.4,16.744,16.744,0,0,0,.1-2.061,7.313,7.313,0,0,0-.362-2.5,3.777,3.777,0,0,0-.978-1.536,3.45,3.45,0,0,0-1.438-.776,6.9,6.9,0,0,0-1.778-.219h-.326a1.981,1.981,0,0,0-.369.023l-.352.033-.271.036v10.453Zm-2.515-11.624c.264-.029.574-.055.926-.091s.731-.062,1.125-.085.792-.046,1.194-.059.776-.02,1.125-.02a10.329,10.329,0,0,1,2.753.326,5.544,5.544,0,0,1,2.12,1.08,4.953,4.953,0,0,1,1.37,1.915,7.276,7.276,0,0,1,.489,2.818,10.578,10.578,0,0,1-.382,2.935,5.784,5.784,0,0,1-1.217,2.257,5.545,5.545,0,0,1-2.149,1.445,8.927,8.927,0,0,1-3.183.506h-1.1c-.382,0-.757-.026-1.125-.049l-1.057-.072c-.342-.026-.652-.049-.894-.078Z" transform="translate(-362.865 -128.581)" fill="none" stroke="#231f20" stroke-miterlimit="22.93" stroke-width="0.57"/>
      <path id="Path_129" data-name="Path 129" d="M592.528,197.437a9.271,9.271,0,0,1-.391,2.785,5.61,5.61,0,0,1-1.171,2.13,5.16,5.16,0,0,1-1.957,1.357,7.329,7.329,0,0,1-2.73.473,7.045,7.045,0,0,1-2.746-.483,4.779,4.779,0,0,1-1.875-1.36,5.773,5.773,0,0,1-1.07-2.13,10.316,10.316,0,0,1-.349-2.772,9.939,9.939,0,0,1,.352-2.753,5.544,5.544,0,0,1,1.1-2.087,4.843,4.843,0,0,1,1.888-1.321,7.27,7.27,0,0,1,2.713-.46,7.449,7.449,0,0,1,2.74.46,5.132,5.132,0,0,1,1.957,1.321,5.568,5.568,0,0,1,1.161,2.087,9.012,9.012,0,0,1,.391,2.753Zm-2.661,0a10.17,10.17,0,0,0-.2-2.14,4.687,4.687,0,0,0-.652-1.6,2.935,2.935,0,0,0-1.115-1,3.509,3.509,0,0,0-1.631-.346,6.007,6.007,0,0,0-1.526.179,2.935,2.935,0,0,0-1.115.5,2.334,2.334,0,0,0-.6,1.432,17.93,17.93,0,0,0-.192,2.984,12.484,12.484,0,0,0,.166,2.13,5.3,5.3,0,0,0,.567,1.631,2.8,2.8,0,0,0,1.05,1.066,3.261,3.261,0,0,0,1.631.375,6.324,6.324,0,0,0,1.657-.183,3.639,3.639,0,0,0,1.125-.492,1.057,1.057,0,0,0,.369-.567,5.865,5.865,0,0,0,.264-1.037q.1-.616.157-1.37C589.853,198.494,589.866,197.972,589.866,197.437Z" transform="translate(-391.084 -128.58)" fill="none" stroke="#231f20" stroke-miterlimit="22.93" stroke-width="0.57"/>
      <path id="Path_130" data-name="Path 130" d="M642.074,203.612l-1.458-4.4-4.67.072-1.5,4.328h-1.6l4.892-12.932,2.449-.44,4.566,13.372Zm-1.856-5.623-1.879-5.633-1.941,5.633Z" transform="translate(-426.537 -128.193)" fill="none" stroke="#231f20" stroke-miterlimit="22.93" stroke-width="0.57"/>
      <path id="Path_131" data-name="Path 131" d="M683.772,200.618a4.035,4.035,0,0,1-.277,1.546,2.858,2.858,0,0,1-.848,1.148,3.826,3.826,0,0,1-1.448.724,7.73,7.73,0,0,1-2.094.248h-.92c-.352,0-.711-.02-1.083-.036s-.734-.039-1.086-.062-.652-.059-.926-.088V191.2c.5-.055,1.07-.095,1.709-.124s1.246-.042,1.81-.042a9.026,9.026,0,0,1,1.882.176,4.386,4.386,0,0,1,1.451.551,2.668,2.668,0,0,1,.926.978,2.873,2.873,0,0,1,.326,1.409,3.443,3.443,0,0,1-.183,1.168,2.994,2.994,0,0,1-.489.874,2.41,2.41,0,0,1-.714.61,3.662,3.662,0,0,1-.848.349v.042a3.915,3.915,0,0,1,1.279.479,3.069,3.069,0,0,1,.867.77,2.969,2.969,0,0,1,.5,1,4.175,4.175,0,0,1,.166,1.194Zm-3.141-6.2a1.926,1.926,0,0,0-.626-1.631,3,3,0,0,0-1.778-.46H677.9a1.178,1.178,0,0,0-.29.023v4.211h.835a4.532,4.532,0,0,0,.881-.088,2.283,2.283,0,0,0,.675-.212.978.978,0,0,0,.225-.189,1.143,1.143,0,0,0,.209-.326,2.653,2.653,0,0,0,.147-.541,4.9,4.9,0,0,0,.055-.793Zm.567,6.057a2.465,2.465,0,0,0-.717-1.924,2.99,2.99,0,0,0-2.084-.652H677.6v5.006l.192.023h.74a4.5,4.5,0,0,0,.5-.02c.176-.02.362-.033.541-.055a4.269,4.269,0,0,0,.476-.091,1.721,1.721,0,0,0,.349-.13,1.893,1.893,0,0,0,.271-.225,1.665,1.665,0,0,0,.261-.388,2.579,2.579,0,0,0,.186-.623A5.049,5.049,0,0,0,681.2,200.477Z" transform="translate(-455.001 -128.724)" fill="none" stroke="#231f20" stroke-miterlimit="22.93" stroke-width="0.57"/>
      <path id="Path_132" data-name="Path 132" d="M714.084,203.612l-1.461-4.4-4.667.072-1.5,4.328h-1.6l4.892-12.932,2.449-.44,4.566,13.372Zm-1.856-5.623-1.879-5.633-1.957,5.633Z" transform="translate(-475.061 -128.193)" fill="none" stroke="#231f20" stroke-miterlimit="22.93" stroke-width="0.57"/>
      <path id="Path_133" data-name="Path 133" d="M749.608,202.7c.085,0,.183.036.294.049s.232.023.359.033l.352.026h.28a10.439,10.439,0,0,0,1.885-.14,3.145,3.145,0,0,0,1.3-.548,2.807,2.807,0,0,0,.545-.577,3.614,3.614,0,0,0,.44-.907,7.511,7.511,0,0,0,.294-1.4,16.684,16.684,0,0,0,.108-2.061,7.314,7.314,0,0,0-.362-2.5,3.849,3.849,0,0,0-.978-1.536,3.464,3.464,0,0,0-1.442-.776,6.9,6.9,0,0,0-1.777-.219h-.326a1.946,1.946,0,0,0-.365.023l-.352.033-.271.036v10.453Zm-2.518-11.624.93-.091c.352-.033.727-.062,1.122-.085s.793-.046,1.194-.059.78-.02,1.125-.02a10.313,10.313,0,0,1,2.753.326,5.544,5.544,0,0,1,2.12,1.08,4.929,4.929,0,0,1,1.373,1.915,7.341,7.341,0,0,1,.486,2.818,10.457,10.457,0,0,1-.382,2.935,5.741,5.741,0,0,1-1.217,2.257,5.544,5.544,0,0,1-2.149,1.445,8.9,8.9,0,0,1-3.18.506h-1.1c-.382,0-.757-.026-1.125-.049l-1.057-.072c-.342-.026-.652-.049-.894-.078Z" transform="translate(-503.518 -128.581)" fill="none" stroke="#231f20" stroke-miterlimit="22.93" stroke-width="0.57"/>
      <rect id="Rectangle_90" data-name="Rectangle 90" width="2.515" height="13.043" transform="translate(257.6 62.376)" fill="none" stroke="#231f20" stroke-miterlimit="22.93" stroke-width="0.57"/>
      <path id="Path_134" data-name="Path 134" d="M214.968,249.7a2.609,2.609,0,0,1-.936-.163,1.853,1.853,0,0,1-.727-.5,2.133,2.133,0,0,1-.46-.8,3.314,3.314,0,0,1-.144-1.027,2.609,2.609,0,0,1,.6-1.826,1.937,1.937,0,0,1,.734-.506,2.507,2.507,0,0,1,.93-.166,2.665,2.665,0,0,1,.744.1,1.934,1.934,0,0,1,.616.3,1.578,1.578,0,0,1,.5.577,2.212,2.212,0,0,1,.205.734h-1.027a.92.92,0,0,0-.326-.613,1.079,1.079,0,0,0-.717-.222,1.142,1.142,0,0,0-.5.108,1.076,1.076,0,0,0-.385.326,1.559,1.559,0,0,0-.245.512,2.847,2.847,0,0,0,0,1.38,1.52,1.52,0,0,0,.241.512,1.011,1.011,0,0,0,.378.326,1.145,1.145,0,0,0,.5.108,1.077,1.077,0,0,0,.718-.232,1.024,1.024,0,0,0,.326-.652h1.034a2.325,2.325,0,0,1-.205.747,1.718,1.718,0,0,1-.447.519,1.745,1.745,0,0,1-.629.326A2.671,2.671,0,0,1,214.968,249.7Z" transform="translate(-143.417 -164.904)" fill="#3f88c0"/>
      <path id="Path_135" data-name="Path 135" d="M232.057,248.769a2.11,2.11,0,0,1,.74.121,1.445,1.445,0,0,1,.561.349,1.517,1.517,0,0,1,.355.571,2.534,2.534,0,0,1,0,1.566,1.53,1.53,0,0,1-.355.574,1.562,1.562,0,0,1-.561.346,2.322,2.322,0,0,1-1.477,0,1.481,1.481,0,0,1-.923-.92,2.473,2.473,0,0,1,0-1.566,1.529,1.529,0,0,1,.362-.571,1.422,1.422,0,0,1,.561-.349A2.107,2.107,0,0,1,232.057,248.769Zm0,2.935a.652.652,0,0,0,.551-.264,1.81,1.81,0,0,0,0-1.663.7.7,0,0,0-1.1,0,1.81,1.81,0,0,0,0,1.663.652.652,0,0,0,.548.248Z" transform="translate(-155.259 -167.633)" fill="#3f88c0"/>
      <path id="Path_136" data-name="Path 136" d="M251.16,252.321h-1v-2.188a.916.916,0,0,0-.1-.489.349.349,0,0,0-.326-.144.652.652,0,0,0-.362.114,1.526,1.526,0,0,0-.355.326v2.374h-1v-2.182a.956.956,0,0,0-.095-.489.349.349,0,0,0-.31-.144.675.675,0,0,0-.365.114,1.305,1.305,0,0,0-.352.326v2.374H245.88v-3.487h.978v.437a1.357,1.357,0,0,1,1.044-.519,1.2,1.2,0,0,1,.652.15.878.878,0,0,1,.369.466,2.074,2.074,0,0,1,.522-.453,1.129,1.129,0,0,1,.594-.163c.757,0,1.135.427,1.135,1.288Z" transform="translate(-165.778 -167.616)" fill="#3f88c0"/>
      <path id="Path_137" data-name="Path 137" d="M272.54,252.321h-1.011v-2.188a.916.916,0,0,0-.1-.489.356.356,0,0,0-.326-.144.653.653,0,0,0-.362.114,1.593,1.593,0,0,0-.355.326v2.374h-.995v-2.182a.956.956,0,0,0-.095-.489.346.346,0,0,0-.31-.144.675.675,0,0,0-.365.114,1.347,1.347,0,0,0-.352.326v2.374H267.26v-3.487h.978v.437a1.363,1.363,0,0,1,1.047-.519,1.213,1.213,0,0,1,.652.15.91.91,0,0,1,.369.466,2.119,2.119,0,0,1,.519-.453,1.135,1.135,0,0,1,.594-.163c.757,0,1.135.427,1.135,1.288Z" transform="translate(-180.184 -167.617)" fill="#3f88c0"/>
      <path id="Path_138" data-name="Path 138" d="M289.654,249.683H288.64V246.19h1.014v3.487Zm0-4.051H288.64v-.8h1.014Z" transform="translate(-194.591 -164.979)" fill="#3f88c0"/>
      <path id="Path_139" data-name="Path 139" d="M297.928,250.7a2.609,2.609,0,0,1-.545.049,1.451,1.451,0,0,1-.61-.1.7.7,0,0,1-.326-.294,1.135,1.135,0,0,1-.117-.457c0-.179-.02-.378-.02-.6v-1.37h-.46v-.731h.46v-.874h1v.874h.574v.724h-.574v1.559a1.5,1.5,0,0,0,.023.271.524.524,0,0,0,.065.17.248.248,0,0,0,.1.082.366.366,0,0,0,.137.023,1.57,1.57,0,0,0,.28-.026Z" transform="translate(-199.45 -165.983)" fill="#3f88c0"/>
      <path id="Path_140" data-name="Path 140" d="M307.278,250.7a2.589,2.589,0,0,1-.545.049,1.444,1.444,0,0,1-.607-.1.7.7,0,0,1-.326-.294,1.135,1.135,0,0,1-.121-.457c0-.179-.02-.378-.02-.6v-1.37h-.46v-.731h.46v-.874h1v.874h.571v.724h-.571v1.559a1.247,1.247,0,0,0,.023.271.459.459,0,0,0,.065.17.238.238,0,0,0,.1.082.378.378,0,0,0,.137.023,1.571,1.571,0,0,0,.28-.026Z" transform="translate(-205.75 -165.983)" fill="#3f88c0"/>
      <path id="Path_141" data-name="Path 141" d="M316.949,252.466a2.222,2.222,0,0,1-.78-.127,1.532,1.532,0,0,1-.577-.359,1.467,1.467,0,0,1-.352-.568,2.23,2.23,0,0,1-.121-.763,2.283,2.283,0,0,1,.121-.77,1.576,1.576,0,0,1,.352-.574,1.543,1.543,0,0,1,.561-.362,2.173,2.173,0,0,1,.753-.124,2.094,2.094,0,0,1,.737.121,1.451,1.451,0,0,1,.554.346,1.532,1.532,0,0,1,.349.561,2.241,2.241,0,0,1,.124.77v.219h-2.515a1.472,1.472,0,0,0,.065.447.84.84,0,0,0,.166.307.653.653,0,0,0,.245.176.894.894,0,0,0,.326.052.841.841,0,0,0,.463-.117.6.6,0,0,0,.245-.385h.946a1.213,1.213,0,0,1-.2.486,1.3,1.3,0,0,1-.359.349,1.611,1.611,0,0,1-.492.215,2.378,2.378,0,0,1-.607.075Zm.717-2.195a1.093,1.093,0,0,0-.225-.652.685.685,0,0,0-.535-.215.652.652,0,0,0-.519.232,1.034,1.034,0,0,0-.225.652Z" transform="translate(-212.434 -167.667)" fill="#3f88c0"/>
      <path id="Path_142" data-name="Path 142" d="M332.463,247.187a1.118,1.118,0,0,0-.326-.209.979.979,0,0,0-.372-.072.568.568,0,0,0-.509.281,1.659,1.659,0,0,0-.173.845c0,.714.212,1.07.652,1.07a.675.675,0,0,0,.388-.121,1.537,1.537,0,0,0,.326-.342v-1.451Zm.036,2.133a1.514,1.514,0,0,1-.476.375,1.229,1.229,0,0,1-.564.134,1.425,1.425,0,0,1-.6-.124,1.174,1.174,0,0,1-.437-.352,1.579,1.579,0,0,1-.267-.568,2.8,2.8,0,0,1-.091-.753,2.609,2.609,0,0,1,.1-.757,1.689,1.689,0,0,1,.29-.584,1.3,1.3,0,0,1,.463-.375,1.376,1.376,0,0,1,.613-.134,1.523,1.523,0,0,1,.528.082,1.067,1.067,0,0,1,.408.258V244.93h1.008v4.82h-.978Z" transform="translate(-222.501 -165.046)" fill="#3f88c0"/>
      <path id="Path_143" data-name="Path 143" d="M358.322,245.811H356.9v3.94h-1.018v-3.94H354.46v-.881h3.862Z" transform="translate(-238.944 -165.046)" fill="#3f88c0"/>
      <path id="Path_144" data-name="Path 144" d="M371.827,248.769a2.123,2.123,0,0,1,.74.121,1.445,1.445,0,0,1,.561.349,1.517,1.517,0,0,1,.355.584,2.534,2.534,0,0,1,0,1.566,1.53,1.53,0,0,1-.355.574,1.563,1.563,0,0,1-.561.346,2.323,2.323,0,0,1-1.477,0,1.537,1.537,0,0,1-.561-.346,1.5,1.5,0,0,1-.362-.574,2.472,2.472,0,0,1,0-1.566,1.49,1.49,0,0,1,.362-.571,1.422,1.422,0,0,1,.561-.349,2.107,2.107,0,0,1,.737-.121Zm0,2.935a.652.652,0,0,0,.548-.264,1.787,1.787,0,0,0,0-1.663.695.695,0,0,0-1.1,0,1.81,1.81,0,0,0,0,1.663.652.652,0,0,0,.548.248Z" transform="translate(-249.443 -167.633)" fill="#3f88c0"/>
      <path id="Path_145" data-name="Path 145" d="M389.645,249.02l-1.014,3.487h-.978l-.62-2.4-.626,2.4h-.956l-1.021-3.487h.978l.545,2.492.652-2.492h.89l.633,2.492.577-2.492Z" transform="translate(-259.139 -167.802)" fill="#3f88c0"/>
      <path id="Path_146" data-name="Path 146" d="M406.248,250.736h-.326a1.764,1.764,0,0,0-.773.13.45.45,0,0,0-.258.44.408.408,0,0,0,.16.355.688.688,0,0,0,.411.111,1.053,1.053,0,0,0,.45-.1.943.943,0,0,0,.326-.254v-.685Zm.023,1.269a1.523,1.523,0,0,1-.522.3,2.1,2.1,0,0,1-.652.095,1.774,1.774,0,0,1-.489-.065,1.043,1.043,0,0,1-.385-.192.855.855,0,0,1-.254-.326,1,1,0,0,1-.091-.444.978.978,0,0,1,.515-.916,3.262,3.262,0,0,1,1.569-.294h.29v-.179a1.089,1.089,0,0,0,0-.166.525.525,0,0,0-.17-.372.7.7,0,0,0-.46-.124.8.8,0,0,0-.492.127.434.434,0,0,0-.166.369h-.923q.078-1.07,1.631-1.073h.378a2.076,2.076,0,0,1,.31.046,1.563,1.563,0,0,1,.264.078,1.692,1.692,0,0,1,.241.124,1.034,1.034,0,0,1,.189.163.85.85,0,0,1,.134.219,1.132,1.132,0,0,1,.082.29,2.612,2.612,0,0,1,.026.382V252.3h-.978Z" transform="translate(-272.243 -167.613)" fill="#3f88c0"/>
      <path id="Path_147" data-name="Path 147" d="M421.7,249.653a1.415,1.415,0,0,0-.183-.033h-.232a1.037,1.037,0,0,0-.444.1,1.093,1.093,0,0,0-.378.326v2.283H419.45v-3.5h.978v.561a1.556,1.556,0,0,1,.466-.486,1,1,0,0,1,.532-.157h.137a.385.385,0,0,1,.134.023Z" transform="translate(-282.738 -167.62)" fill="#3f88c0"/>
      <path id="Path_148" data-name="Path 148" d="M432.193,247.187a1.12,1.12,0,0,0-.326-.209.979.979,0,0,0-.372-.072.568.568,0,0,0-.509.281,1.66,1.66,0,0,0-.173.845c0,.714.212,1.07.652,1.07a.675.675,0,0,0,.388-.121,1.536,1.536,0,0,0,.326-.342v-1.451Zm.036,2.133a1.513,1.513,0,0,1-.476.375,1.229,1.229,0,0,1-.564.134,1.415,1.415,0,0,1-.6-.124,1.174,1.174,0,0,1-.437-.352,1.579,1.579,0,0,1-.267-.568,2.806,2.806,0,0,1-.091-.753,2.609,2.609,0,0,1,.1-.757,1.689,1.689,0,0,1,.29-.584,1.3,1.3,0,0,1,.46-.375,1.4,1.4,0,0,1,.616-.134,1.523,1.523,0,0,1,.528.082,1.067,1.067,0,0,1,.408.258V244.93H433.2v4.82h-.978Z" transform="translate(-289.705 -165.046)" fill="#3f88c0"/>
      <path id="Path_149" data-name="Path 149" d="M446.368,252.45a2.9,2.9,0,0,1-.695-.072,1.354,1.354,0,0,1-.486-.209.9.9,0,0,1-.3-.349,1.22,1.22,0,0,1-.121-.5h.923a.561.561,0,0,0,.17.408.766.766,0,0,0,.505.137.779.779,0,0,0,.447-.108.365.365,0,0,0,.157-.326.3.3,0,0,0-.046-.17.385.385,0,0,0-.147-.114,1.3,1.3,0,0,0-.251-.091l-.365-.095c-.173-.039-.326-.088-.492-.137a1.562,1.562,0,0,1-.414-.192.881.881,0,0,1-.284-.307.978.978,0,0,1-.1-.476.933.933,0,0,1,.1-.424.894.894,0,0,1,.28-.326,1.422,1.422,0,0,1,.463-.222,2.13,2.13,0,0,1,.626-.082,1.918,1.918,0,0,1,1.109.261.917.917,0,0,1,.375.76h-.881a.411.411,0,0,0-.166-.326.718.718,0,0,0-.431-.114.7.7,0,0,0-.385.1.3.3,0,0,0-.15.274.372.372,0,0,0,.029.157.294.294,0,0,0,.111.108,1.067,1.067,0,0,0,.235.091c.1.033.235.065.4.1.219.052.411.1.577.16a1.464,1.464,0,0,1,.417.2.832.832,0,0,1,.251.3,1,1,0,0,1,.085.447,1.11,1.11,0,0,1-.088.45.978.978,0,0,1-.281.355,1.418,1.418,0,0,1-.483.235A2.56,2.56,0,0,1,446.368,252.45Z" transform="translate(-299.799 -167.651)" fill="#3f88c0"/>
      <path id="Path_150" data-name="Path 150" d="M470.166,249.71a2.528,2.528,0,0,1-1.543-.417,1.6,1.6,0,0,1-.6-1.265H469a.9.9,0,0,0,.326.652,1.3,1.3,0,0,0,.793.212,1.406,1.406,0,0,0,.727-.16.512.512,0,0,0,.267-.463.388.388,0,0,0-.065-.225.535.535,0,0,0-.2-.163,1.92,1.92,0,0,0-.326-.13c-.134-.039-.29-.082-.47-.124l-.183-.052c-.225-.059-.444-.121-.652-.179a2.04,2.04,0,0,1-.538-.241,1.106,1.106,0,0,1-.369-.388,1.233,1.233,0,0,1-.14-.616,1.263,1.263,0,0,1,.153-.633,1.324,1.324,0,0,1,.411-.44,1.839,1.839,0,0,1,.6-.261,3.011,3.011,0,0,1,.721-.085,2.845,2.845,0,0,1,.793.1,1.82,1.82,0,0,1,.613.3,1.367,1.367,0,0,1,.4.476,1.524,1.524,0,0,1,.157.633h-.972a.688.688,0,0,0-.287-.515,1.422,1.422,0,0,0-1.321-.026.467.467,0,0,0-.225.411.385.385,0,0,0,.059.209.515.515,0,0,0,.176.153,1.868,1.868,0,0,0,.326.121q.186.055.45.117l.506.117a4.412,4.412,0,0,1,.463.134,2.358,2.358,0,0,1,.4.179,1.161,1.161,0,0,1,.307.251,1.09,1.09,0,0,1,.2.352,1.483,1.483,0,0,1,.068.476,1.383,1.383,0,0,1-.14.636,1.275,1.275,0,0,1-.4.466,1.839,1.839,0,0,1-.629.29A3.155,3.155,0,0,1,470.166,249.71Z" transform="translate(-315.466 -164.911)" fill="#3f88c0"/>
      <path id="Path_151" data-name="Path 151" d="M486.7,248.769a2.11,2.11,0,0,1,.74.121,1.445,1.445,0,0,1,.561.349,1.516,1.516,0,0,1,.355.571,2.534,2.534,0,0,1,0,1.566,1.53,1.53,0,0,1-.355.574,1.562,1.562,0,0,1-.561.346,2.322,2.322,0,0,1-1.477,0,1.536,1.536,0,0,1-.561-.346,1.5,1.5,0,0,1-.362-.574,2.472,2.472,0,0,1,0-1.566,1.491,1.491,0,0,1,.362-.571,1.422,1.422,0,0,1,.561-.349A2.106,2.106,0,0,1,486.7,248.769Zm0,2.935a.652.652,0,0,0,.548-.264,1.787,1.787,0,0,0,0-1.663.695.695,0,0,0-1.1,0,1.81,1.81,0,0,0,0,1.663.652.652,0,0,0,.548.248Z" transform="translate(-326.848 -167.633)" fill="#3f88c0"/>
      <rect id="Rectangle_91" data-name="Rectangle 91" width="1.011" height="4.821" transform="translate(163.15 79.884)" fill="#3f88c0"/>
      <path id="Path_152" data-name="Path 152" d="M511.123,252.056a1.715,1.715,0,0,1-.519.385,1.382,1.382,0,0,1-.581.13q-1.194,0-1.194-1.288V249h1.014v2.192a.875.875,0,0,0,.1.466.408.408,0,0,0,.372.163.711.711,0,0,0,.4-.124,1.816,1.816,0,0,0,.365-.326V249H512.1v3.487h-.978Z" transform="translate(-342.966 -167.789)" fill="#3f88c0"/>
      <path id="Path_153" data-name="Path 153" d="M525.065,250.7a2.609,2.609,0,0,1-.545.049,1.451,1.451,0,0,1-.61-.1.7.7,0,0,1-.326-.294,1.134,1.134,0,0,1-.117-.457c0-.179-.02-.378-.02-.6v-1.37H523v-.731h.46v-.874h1v.874h.574v.724h-.574v1.559a1.5,1.5,0,0,0,.023.271.522.522,0,0,0,.065.17.248.248,0,0,0,.1.082.366.366,0,0,0,.137.023,1.57,1.57,0,0,0,.28-.026Z" transform="translate(-352.515 -165.983)" fill="#3f88c0"/>
      <path id="Path_154" data-name="Path 154" d="M534.491,249.683H533.48V246.19h1.011v3.487Zm0-4.051H533.48v-.8h1.011Z" transform="translate(-359.577 -164.979)" fill="#3f88c0"/>
      <path id="Path_155" data-name="Path 155" d="M543.031,248.769a2.094,2.094,0,0,1,.737.121,1.422,1.422,0,0,1,.561.349,1.477,1.477,0,0,1,.355.584,2.473,2.473,0,0,1,0,1.565,1.49,1.49,0,0,1-.355.574,1.536,1.536,0,0,1-.561.346,2.312,2.312,0,0,1-1.474,0,1.474,1.474,0,0,1-.926-.92,2.472,2.472,0,0,1,0-1.566,1.528,1.528,0,0,1,.362-.571,1.435,1.435,0,0,1,.564-.349,2.094,2.094,0,0,1,.737-.121Zm0,2.935a.652.652,0,0,0,.548-.264,1.81,1.81,0,0,0,0-1.663.7.7,0,0,0-1.1,0,1.836,1.836,0,0,0,0,1.663.652.652,0,0,0,.551.248Z" transform="translate(-364.806 -167.633)" fill="#3f88c0"/>
      <path id="Path_156" data-name="Path 156" d="M557.828,249.289a1.664,1.664,0,0,1,.515-.388,1.3,1.3,0,0,1,.571-.13c.8,0,1.2.427,1.2,1.288v2.283h-1.011V250.15a.864.864,0,0,0-.108-.47.4.4,0,0,0-.369-.163.715.715,0,0,0-.4.124,1.854,1.854,0,0,0-.365.326v2.374H556.85v-3.5h.979Z" transform="translate(-375.325 -167.634)" fill="#3f88c0"/>
      <path id="Path_157" data-name="Path 157" d="M572.948,252.45a2.9,2.9,0,0,1-.695-.072,1.354,1.354,0,0,1-.486-.209.9.9,0,0,1-.3-.349,1.334,1.334,0,0,1-.121-.5h.923a.551.551,0,0,0,.173.408.753.753,0,0,0,.5.137.779.779,0,0,0,.447-.108.365.365,0,0,0,.156-.326.3.3,0,0,0-.046-.17.359.359,0,0,0-.147-.114,1.306,1.306,0,0,0-.251-.091l-.365-.095c-.173-.039-.326-.088-.492-.137a1.561,1.561,0,0,1-.414-.192.881.881,0,0,1-.284-.307.979.979,0,0,1-.1-.476.933.933,0,0,1,.1-.424.9.9,0,0,1,.284-.326,1.374,1.374,0,0,1,.46-.222,2.143,2.143,0,0,1,.626-.082,1.918,1.918,0,0,1,1.109.261.916.916,0,0,1,.375.76h-.881a.411.411,0,0,0-.166-.326.714.714,0,0,0-.427-.114.7.7,0,0,0-.388.1.3.3,0,0,0-.15.274.372.372,0,0,0,.029.157.281.281,0,0,0,.114.108.978.978,0,0,0,.232.091c.1.033.235.065.4.1.219.052.411.1.577.16a1.465,1.465,0,0,1,.418.2.831.831,0,0,1,.251.3,1,1,0,0,1,.088.447,1.108,1.108,0,0,1-.091.45.946.946,0,0,1-.28.356,1.419,1.419,0,0,1-.483.235A2.56,2.56,0,0,1,572.948,252.45Z" transform="translate(-385.095 -167.651)" fill="#3f88c0"/>
      <path id="Path_158" data-name="Path 158" d="M214.968,249.7a2.609,2.609,0,0,1-.936-.163,1.853,1.853,0,0,1-.727-.5,2.133,2.133,0,0,1-.46-.8,3.314,3.314,0,0,1-.144-1.027,2.609,2.609,0,0,1,.6-1.826,1.937,1.937,0,0,1,.734-.506,2.507,2.507,0,0,1,.93-.166,2.665,2.665,0,0,1,.744.1,1.934,1.934,0,0,1,.616.3,1.578,1.578,0,0,1,.5.577,2.212,2.212,0,0,1,.205.734h-1.027a.92.92,0,0,0-.326-.613,1.079,1.079,0,0,0-.717-.222,1.142,1.142,0,0,0-.5.108,1.076,1.076,0,0,0-.385.326,1.559,1.559,0,0,0-.245.512,2.847,2.847,0,0,0,0,1.38,1.52,1.52,0,0,0,.241.512,1.011,1.011,0,0,0,.378.326,1.145,1.145,0,0,0,.5.108,1.077,1.077,0,0,0,.718-.232,1.024,1.024,0,0,0,.326-.652h1.034a2.325,2.325,0,0,1-.205.747,1.718,1.718,0,0,1-.447.519,1.745,1.745,0,0,1-.629.326A2.671,2.671,0,0,1,214.968,249.7Z" transform="translate(-143.417 -164.904)" fill="none" stroke="#3f88c0" stroke-miterlimit="22.93" stroke-width="0.22"/>
      <path id="Path_159" data-name="Path 159" d="M232.057,248.769a2.11,2.11,0,0,1,.74.121,1.445,1.445,0,0,1,.561.349,1.517,1.517,0,0,1,.355.571,2.534,2.534,0,0,1,0,1.566,1.53,1.53,0,0,1-.355.574,1.562,1.562,0,0,1-.561.346,2.322,2.322,0,0,1-1.477,0,1.481,1.481,0,0,1-.923-.92,2.473,2.473,0,0,1,0-1.566,1.529,1.529,0,0,1,.362-.571,1.422,1.422,0,0,1,.561-.349A2.107,2.107,0,0,1,232.057,248.769Zm0,2.935a.652.652,0,0,0,.551-.264,1.81,1.81,0,0,0,0-1.663.7.7,0,0,0-1.1,0,1.81,1.81,0,0,0,0,1.663.652.652,0,0,0,.548.248Z" transform="translate(-155.259 -167.633)" fill="none" stroke="#3f88c0" stroke-miterlimit="22.93" stroke-width="0.22"/>
      <path id="Path_160" data-name="Path 160" d="M251.16,252.321h-1v-2.188a.916.916,0,0,0-.1-.489.349.349,0,0,0-.326-.144.652.652,0,0,0-.362.114,1.526,1.526,0,0,0-.355.326v2.374h-1v-2.182a.956.956,0,0,0-.095-.489.349.349,0,0,0-.31-.144.675.675,0,0,0-.365.114,1.305,1.305,0,0,0-.352.326v2.374H245.88v-3.487h.978v.437a1.357,1.357,0,0,1,1.044-.519,1.2,1.2,0,0,1,.652.15.878.878,0,0,1,.369.466,2.074,2.074,0,0,1,.522-.453,1.129,1.129,0,0,1,.594-.163c.757,0,1.135.427,1.135,1.288Z" transform="translate(-165.778 -167.616)" fill="none" stroke="#3f88c0" stroke-miterlimit="22.93" stroke-width="0.22"/>
      <path id="Path_161" data-name="Path 161" d="M272.54,252.321h-1.011v-2.188a.916.916,0,0,0-.1-.489.356.356,0,0,0-.326-.144.653.653,0,0,0-.362.114,1.593,1.593,0,0,0-.355.326v2.374h-.995v-2.182a.956.956,0,0,0-.095-.489.346.346,0,0,0-.31-.144.675.675,0,0,0-.365.114,1.347,1.347,0,0,0-.352.326v2.374H267.26v-3.487h.978v.437a1.363,1.363,0,0,1,1.047-.519,1.213,1.213,0,0,1,.652.15.91.91,0,0,1,.369.466,2.119,2.119,0,0,1,.519-.453,1.135,1.135,0,0,1,.594-.163c.757,0,1.135.427,1.135,1.288Z" transform="translate(-180.184 -167.617)" fill="none" stroke="#3f88c0" stroke-miterlimit="22.93" stroke-width="0.22"/>
      <path id="Path_162" data-name="Path 162" d="M289.654,249.683H288.64V246.19h1.014v3.487Zm0-4.051H288.64v-.8h1.014Z" transform="translate(-194.591 -164.979)" fill="none" stroke="#3f88c0" stroke-miterlimit="22.93" stroke-width="0.22"/>
      <path id="Path_163" data-name="Path 163" d="M297.928,250.7a2.609,2.609,0,0,1-.545.049,1.451,1.451,0,0,1-.61-.1.7.7,0,0,1-.326-.294,1.135,1.135,0,0,1-.117-.457c0-.179-.02-.378-.02-.6v-1.37h-.46v-.731h.46v-.874h1v.874h.574v.724h-.574v1.559a1.5,1.5,0,0,0,.023.271.524.524,0,0,0,.065.17.248.248,0,0,0,.1.082.366.366,0,0,0,.137.023,1.57,1.57,0,0,0,.28-.026Z" transform="translate(-199.45 -165.983)" fill="none" stroke="#3f88c0" stroke-miterlimit="22.93" stroke-width="0.22"/>
      <path id="Path_164" data-name="Path 164" d="M307.278,250.7a2.589,2.589,0,0,1-.545.049,1.444,1.444,0,0,1-.607-.1.7.7,0,0,1-.326-.294,1.135,1.135,0,0,1-.121-.457c0-.179-.02-.378-.02-.6v-1.37h-.46v-.731h.46v-.874h1v.874h.571v.724h-.571v1.559a1.247,1.247,0,0,0,.023.271.459.459,0,0,0,.065.17.238.238,0,0,0,.1.082.378.378,0,0,0,.137.023,1.571,1.571,0,0,0,.28-.026Z" transform="translate(-205.75 -165.983)" fill="none" stroke="#3f88c0" stroke-miterlimit="22.93" stroke-width="0.22"/>
      <path id="Path_165" data-name="Path 165" d="M316.949,252.466a2.222,2.222,0,0,1-.78-.127,1.532,1.532,0,0,1-.577-.359,1.467,1.467,0,0,1-.352-.568,2.23,2.23,0,0,1-.121-.763,2.283,2.283,0,0,1,.121-.77,1.576,1.576,0,0,1,.352-.574,1.543,1.543,0,0,1,.561-.362,2.173,2.173,0,0,1,.753-.124,2.094,2.094,0,0,1,.737.121,1.451,1.451,0,0,1,.554.346,1.532,1.532,0,0,1,.349.561,2.241,2.241,0,0,1,.124.77v.219h-2.515a1.472,1.472,0,0,0,.065.447.84.84,0,0,0,.166.307.653.653,0,0,0,.245.176.894.894,0,0,0,.326.052.841.841,0,0,0,.463-.117.6.6,0,0,0,.245-.385h.946a1.213,1.213,0,0,1-.2.486,1.3,1.3,0,0,1-.359.349,1.611,1.611,0,0,1-.492.215,2.378,2.378,0,0,1-.607.075Zm.717-2.195a1.093,1.093,0,0,0-.225-.652.685.685,0,0,0-.535-.215.652.652,0,0,0-.519.232,1.034,1.034,0,0,0-.225.652Z" transform="translate(-212.434 -167.667)" fill="none" stroke="#3f88c0" stroke-miterlimit="22.93" stroke-width="0.22"/>
      <path id="Path_166" data-name="Path 166" d="M332.463,247.187a1.118,1.118,0,0,0-.326-.209.979.979,0,0,0-.372-.072.568.568,0,0,0-.509.281,1.659,1.659,0,0,0-.173.845c0,.714.212,1.07.652,1.07a.675.675,0,0,0,.388-.121,1.537,1.537,0,0,0,.326-.342v-1.451Zm.036,2.133a1.514,1.514,0,0,1-.476.375,1.229,1.229,0,0,1-.564.134,1.425,1.425,0,0,1-.6-.124,1.174,1.174,0,0,1-.437-.352,1.579,1.579,0,0,1-.267-.568,2.8,2.8,0,0,1-.091-.753,2.609,2.609,0,0,1,.1-.757,1.689,1.689,0,0,1,.29-.584,1.3,1.3,0,0,1,.463-.375,1.376,1.376,0,0,1,.613-.134,1.523,1.523,0,0,1,.528.082,1.067,1.067,0,0,1,.408.258V244.93h1.008v4.82h-.978Z" transform="translate(-222.501 -165.046)" fill="none" stroke="#3f88c0" stroke-miterlimit="22.93" stroke-width="0.22"/>
      <path id="Path_167" data-name="Path 167" d="M358.322,245.811H356.9v3.94h-1.018v-3.94H354.46v-.881h3.862Z" transform="translate(-238.944 -165.046)" fill="none" stroke="#3f88c0" stroke-miterlimit="22.93" stroke-width="0.22"/>
      <path id="Path_168" data-name="Path 168" d="M371.827,248.769a2.123,2.123,0,0,1,.74.121,1.445,1.445,0,0,1,.561.349,1.517,1.517,0,0,1,.355.584,2.534,2.534,0,0,1,0,1.566,1.53,1.53,0,0,1-.355.574,1.563,1.563,0,0,1-.561.346,2.323,2.323,0,0,1-1.477,0,1.537,1.537,0,0,1-.561-.346,1.5,1.5,0,0,1-.362-.574,2.472,2.472,0,0,1,0-1.566,1.49,1.49,0,0,1,.362-.571,1.422,1.422,0,0,1,.561-.349,2.107,2.107,0,0,1,.737-.121Zm0,2.935a.652.652,0,0,0,.548-.264,1.787,1.787,0,0,0,0-1.663.695.695,0,0,0-1.1,0,1.81,1.81,0,0,0,0,1.663.652.652,0,0,0,.548.248Z" transform="translate(-249.443 -167.633)" fill="none" stroke="#3f88c0" stroke-miterlimit="22.93" stroke-width="0.22"/>
      <path id="Path_169" data-name="Path 169" d="M389.645,249.02l-1.014,3.487h-.978l-.62-2.4-.626,2.4h-.956l-1.021-3.487h.978l.545,2.492.652-2.492h.89l.633,2.492.577-2.492Z" transform="translate(-259.139 -167.802)" fill="none" stroke="#3f88c0" stroke-miterlimit="22.93" stroke-width="0.22"/>
      <path id="Path_170" data-name="Path 170" d="M406.248,250.736h-.326a1.764,1.764,0,0,0-.773.13.45.45,0,0,0-.258.44.408.408,0,0,0,.16.355.688.688,0,0,0,.411.111,1.053,1.053,0,0,0,.45-.1.943.943,0,0,0,.326-.254v-.685Zm.023,1.269a1.523,1.523,0,0,1-.522.3,2.1,2.1,0,0,1-.652.095,1.774,1.774,0,0,1-.489-.065,1.043,1.043,0,0,1-.385-.192.855.855,0,0,1-.254-.326,1,1,0,0,1-.091-.444.978.978,0,0,1,.515-.916,3.262,3.262,0,0,1,1.569-.294h.29v-.179a1.089,1.089,0,0,0,0-.166.525.525,0,0,0-.17-.372.7.7,0,0,0-.46-.124.8.8,0,0,0-.492.127.434.434,0,0,0-.166.369h-.923q.078-1.07,1.631-1.073h.378a2.076,2.076,0,0,1,.31.046,1.563,1.563,0,0,1,.264.078,1.692,1.692,0,0,1,.241.124,1.034,1.034,0,0,1,.189.163.85.85,0,0,1,.134.219,1.132,1.132,0,0,1,.082.29,2.612,2.612,0,0,1,.026.382V252.3h-.978Z" transform="translate(-272.243 -167.613)" fill="none" stroke="#3f88c0" stroke-miterlimit="22.93" stroke-width="0.22"/>
      <path id="Path_171" data-name="Path 171" d="M421.7,249.653a1.415,1.415,0,0,0-.183-.033h-.232a1.037,1.037,0,0,0-.444.1,1.093,1.093,0,0,0-.378.326v2.283H419.45v-3.5h.978v.561a1.556,1.556,0,0,1,.466-.486,1,1,0,0,1,.532-.157h.137a.385.385,0,0,1,.134.023Z" transform="translate(-282.738 -167.62)" fill="none" stroke="#3f88c0" stroke-miterlimit="22.93" stroke-width="0.22"/>
      <path id="Path_172" data-name="Path 172" d="M432.193,247.187a1.12,1.12,0,0,0-.326-.209.979.979,0,0,0-.372-.072.568.568,0,0,0-.509.281,1.66,1.66,0,0,0-.173.845c0,.714.212,1.07.652,1.07a.675.675,0,0,0,.388-.121,1.536,1.536,0,0,0,.326-.342v-1.451Zm.036,2.133a1.513,1.513,0,0,1-.476.375,1.229,1.229,0,0,1-.564.134,1.415,1.415,0,0,1-.6-.124,1.174,1.174,0,0,1-.437-.352,1.579,1.579,0,0,1-.267-.568,2.806,2.806,0,0,1-.091-.753,2.609,2.609,0,0,1,.1-.757,1.689,1.689,0,0,1,.29-.584,1.3,1.3,0,0,1,.46-.375,1.4,1.4,0,0,1,.616-.134,1.523,1.523,0,0,1,.528.082,1.067,1.067,0,0,1,.408.258V244.93H433.2v4.82h-.978Z" transform="translate(-289.705 -165.046)" fill="none" stroke="#3f88c0" stroke-miterlimit="22.93" stroke-width="0.22"/>
      <path id="Path_173" data-name="Path 173" d="M446.368,252.45a2.9,2.9,0,0,1-.695-.072,1.354,1.354,0,0,1-.486-.209.9.9,0,0,1-.3-.349,1.22,1.22,0,0,1-.121-.5h.923a.561.561,0,0,0,.17.408.766.766,0,0,0,.505.137.779.779,0,0,0,.447-.108.365.365,0,0,0,.157-.326.3.3,0,0,0-.046-.17.385.385,0,0,0-.147-.114,1.3,1.3,0,0,0-.251-.091l-.365-.095c-.173-.039-.326-.088-.492-.137a1.562,1.562,0,0,1-.414-.192.881.881,0,0,1-.284-.307.978.978,0,0,1-.1-.476.933.933,0,0,1,.1-.424.894.894,0,0,1,.28-.326,1.422,1.422,0,0,1,.463-.222,2.13,2.13,0,0,1,.626-.082,1.918,1.918,0,0,1,1.109.261.917.917,0,0,1,.375.76h-.881a.411.411,0,0,0-.166-.326.718.718,0,0,0-.431-.114.7.7,0,0,0-.385.1.3.3,0,0,0-.15.274.372.372,0,0,0,.029.157.294.294,0,0,0,.111.108,1.067,1.067,0,0,0,.235.091c.1.033.235.065.4.1.219.052.411.1.577.16a1.464,1.464,0,0,1,.417.2.832.832,0,0,1,.251.3,1,1,0,0,1,.085.447,1.11,1.11,0,0,1-.088.45.978.978,0,0,1-.281.355,1.418,1.418,0,0,1-.483.235A2.56,2.56,0,0,1,446.368,252.45Z" transform="translate(-299.799 -167.651)" fill="none" stroke="#3f88c0" stroke-miterlimit="22.93" stroke-width="0.22"/>
      <path id="Path_174" data-name="Path 174" d="M470.166,249.71a2.528,2.528,0,0,1-1.543-.417,1.6,1.6,0,0,1-.6-1.265H469a.9.9,0,0,0,.326.652,1.3,1.3,0,0,0,.793.212,1.406,1.406,0,0,0,.727-.16.512.512,0,0,0,.267-.463.388.388,0,0,0-.065-.225.535.535,0,0,0-.2-.163,1.92,1.92,0,0,0-.326-.13c-.134-.039-.29-.082-.47-.124l-.183-.052c-.225-.059-.444-.121-.652-.179a2.04,2.04,0,0,1-.538-.241,1.106,1.106,0,0,1-.369-.388,1.233,1.233,0,0,1-.14-.616,1.263,1.263,0,0,1,.153-.633,1.324,1.324,0,0,1,.411-.44,1.839,1.839,0,0,1,.6-.261,3.011,3.011,0,0,1,.721-.085,2.845,2.845,0,0,1,.793.1,1.82,1.82,0,0,1,.613.3,1.367,1.367,0,0,1,.4.476,1.524,1.524,0,0,1,.157.633h-.972a.688.688,0,0,0-.287-.515,1.422,1.422,0,0,0-1.321-.026.467.467,0,0,0-.225.411.385.385,0,0,0,.059.209.515.515,0,0,0,.176.153,1.868,1.868,0,0,0,.326.121q.186.055.45.117l.506.117a4.412,4.412,0,0,1,.463.134,2.358,2.358,0,0,1,.4.179,1.161,1.161,0,0,1,.307.251,1.09,1.09,0,0,1,.2.352,1.483,1.483,0,0,1,.068.476,1.383,1.383,0,0,1-.14.636,1.275,1.275,0,0,1-.4.466,1.839,1.839,0,0,1-.629.29A3.155,3.155,0,0,1,470.166,249.71Z" transform="translate(-315.466 -164.911)" fill="none" stroke="#3f88c0" stroke-miterlimit="22.93" stroke-width="0.22"/>
      <path id="Path_175" data-name="Path 175" d="M486.7,248.769a2.11,2.11,0,0,1,.74.121,1.445,1.445,0,0,1,.561.349,1.516,1.516,0,0,1,.355.571,2.534,2.534,0,0,1,0,1.566,1.53,1.53,0,0,1-.355.574,1.562,1.562,0,0,1-.561.346,2.322,2.322,0,0,1-1.477,0,1.536,1.536,0,0,1-.561-.346,1.5,1.5,0,0,1-.362-.574,2.472,2.472,0,0,1,0-1.566,1.491,1.491,0,0,1,.362-.571,1.422,1.422,0,0,1,.561-.349A2.106,2.106,0,0,1,486.7,248.769Zm0,2.935a.652.652,0,0,0,.548-.264,1.787,1.787,0,0,0,0-1.663.695.695,0,0,0-1.1,0,1.81,1.81,0,0,0,0,1.663.652.652,0,0,0,.548.248Z" transform="translate(-326.848 -167.633)" fill="none" stroke="#3f88c0" stroke-miterlimit="22.93" stroke-width="0.22"/>
      <rect id="Rectangle_92" data-name="Rectangle 92" width="1.011" height="4.821" transform="translate(163.15 79.884)" fill="none" stroke="#3f88c0" stroke-miterlimit="22.93" stroke-width="0.22"/>
      <path id="Path_176" data-name="Path 176" d="M511.123,252.056a1.715,1.715,0,0,1-.519.385,1.382,1.382,0,0,1-.581.13q-1.194,0-1.194-1.288V249h1.014v2.192a.875.875,0,0,0,.1.466.408.408,0,0,0,.372.163.711.711,0,0,0,.4-.124,1.816,1.816,0,0,0,.365-.326V249H512.1v3.487h-.978Z" transform="translate(-342.966 -167.789)" fill="none" stroke="#3f88c0" stroke-miterlimit="22.93" stroke-width="0.22"/>
      <path id="Path_177" data-name="Path 177" d="M525.065,250.7a2.609,2.609,0,0,1-.545.049,1.451,1.451,0,0,1-.61-.1.7.7,0,0,1-.326-.294,1.134,1.134,0,0,1-.117-.457c0-.179-.02-.378-.02-.6v-1.37H523v-.731h.46v-.874h1v.874h.574v.724h-.574v1.559a1.5,1.5,0,0,0,.023.271.522.522,0,0,0,.065.17.248.248,0,0,0,.1.082.366.366,0,0,0,.137.023,1.57,1.57,0,0,0,.28-.026Z" transform="translate(-352.515 -165.983)" fill="none" stroke="#3f88c0" stroke-miterlimit="22.93" stroke-width="0.22"/>
      <path id="Path_178" data-name="Path 178" d="M534.491,249.683H533.48V246.19h1.011v3.487Zm0-4.051H533.48v-.8h1.011Z" transform="translate(-359.577 -164.979)" fill="none" stroke="#3f88c0" stroke-miterlimit="22.93" stroke-width="0.22"/>
      <path id="Path_179" data-name="Path 179" d="M543.031,248.769a2.094,2.094,0,0,1,.737.121,1.422,1.422,0,0,1,.561.349,1.477,1.477,0,0,1,.355.584,2.473,2.473,0,0,1,0,1.565,1.49,1.49,0,0,1-.355.574,1.536,1.536,0,0,1-.561.346,2.312,2.312,0,0,1-1.474,0,1.474,1.474,0,0,1-.926-.92,2.472,2.472,0,0,1,0-1.566,1.528,1.528,0,0,1,.362-.571,1.435,1.435,0,0,1,.564-.349,2.094,2.094,0,0,1,.737-.121Zm0,2.935a.652.652,0,0,0,.548-.264,1.81,1.81,0,0,0,0-1.663.7.7,0,0,0-1.1,0,1.836,1.836,0,0,0,0,1.663.652.652,0,0,0,.551.248Z" transform="translate(-364.806 -167.633)" fill="none" stroke="#3f88c0" stroke-miterlimit="22.93" stroke-width="0.22"/>
      <path id="Path_180" data-name="Path 180" d="M557.828,249.289a1.664,1.664,0,0,1,.515-.388,1.3,1.3,0,0,1,.571-.13c.8,0,1.2.427,1.2,1.288v2.283h-1.011V250.15a.864.864,0,0,0-.108-.47.4.4,0,0,0-.369-.163.715.715,0,0,0-.4.124,1.854,1.854,0,0,0-.365.326v2.374H556.85v-3.5h.979Z" transform="translate(-375.325 -167.634)" fill="none" stroke="#3f88c0" stroke-miterlimit="22.93" stroke-width="0.22"/>
      <path id="Path_181" data-name="Path 181" d="M572.948,252.45a2.9,2.9,0,0,1-.695-.072,1.354,1.354,0,0,1-.486-.209.9.9,0,0,1-.3-.349,1.334,1.334,0,0,1-.121-.5h.923a.551.551,0,0,0,.173.408.753.753,0,0,0,.5.137.779.779,0,0,0,.447-.108.365.365,0,0,0,.156-.326.3.3,0,0,0-.046-.17.359.359,0,0,0-.147-.114,1.306,1.306,0,0,0-.251-.091l-.365-.095c-.173-.039-.326-.088-.492-.137a1.561,1.561,0,0,1-.414-.192.881.881,0,0,1-.284-.307.979.979,0,0,1-.1-.476.933.933,0,0,1,.1-.424.9.9,0,0,1,.284-.326,1.374,1.374,0,0,1,.46-.222,2.143,2.143,0,0,1,.626-.082,1.918,1.918,0,0,1,1.109.261.916.916,0,0,1,.375.76h-.881a.411.411,0,0,0-.166-.326.714.714,0,0,0-.427-.114.7.7,0,0,0-.388.1.3.3,0,0,0-.15.274.372.372,0,0,0,.029.157.281.281,0,0,0,.114.108.978.978,0,0,0,.232.091c.1.033.235.065.4.1.219.052.411.1.577.16a1.465,1.465,0,0,1,.418.2.831.831,0,0,1,.251.3,1,1,0,0,1,.088.447,1.108,1.108,0,0,1-.091.45.946.946,0,0,1-.28.356,1.419,1.419,0,0,1-.483.235A2.56,2.56,0,0,1,572.948,252.45Z" transform="translate(-385.095 -167.651)" fill="none" stroke="#3f88c0" stroke-miterlimit="22.93" stroke-width="0.22"/>
    </g>
  </g>
</svg>
