<svg xmlns="http://www.w3.org/2000/svg" width="124.029" height="49.532" viewBox="0 0 124.029 49.532">
  <g id="Layer_x0020_1" transform="translate(-60.342 -63.013)">
    <path id="Path_1" data-name="Path 1" d="M187.945,63.042H213.6v49.511H163.285c2.973-8.058,17.887-48.478,18.039-48.8l15.852,44.294,7.642-.02s-10.975-29.12-16.873-44.987Z" transform="translate(-29.231 -0.008)" fill="#4488c1" fill-rule="evenodd"/>
    <path id="Path_2" data-name="Path 2" d="M60.342,63.013h85L126.1,112.523H60.342V63.013ZM73.094,108.09V67.539h7.071V108.09Zm41.36-11.638a4.04,4.04,0,0,0-.719-2.5,5.4,5.4,0,0,0-1.96-1.562,14.189,14.189,0,0,0-2.787-.983c-1.024-.248-2.107-.5-3.24-.745a39.962,39.962,0,0,1-4.3-1.221,11.972,11.972,0,0,1-3.6-1.976,9.121,9.121,0,0,1-2.482-3.2,11.313,11.313,0,0,1-.926-4.841,13.424,13.424,0,0,1,1.073-5.6,11.037,11.037,0,0,1,2.9-3.941,12.11,12.11,0,0,1,4.3-2.328,18.476,18.476,0,0,1,5.554-.776,30.775,30.775,0,0,1,6.194.631,25.734,25.734,0,0,1,5.367,1.645v6.362a32.428,32.428,0,0,0-5.751-1.81,26.178,26.178,0,0,0-5.18-.559,9.24,9.24,0,0,0-5.377,1.335,4.577,4.577,0,0,0-1.891,4,4.733,4.733,0,0,0,.62,2.545,5.1,5.1,0,0,0,1.684,1.655,10.013,10.013,0,0,0,2.452,1.045c.926.259,1.91.507,2.944.724,1.635.362,3.2.786,4.687,1.262a13.426,13.426,0,0,1,3.969,1.986,8.9,8.9,0,0,1,2.738,3.31,11.756,11.756,0,0,1,1.014,5.234,12.975,12.975,0,0,1-1.152,5.669,10.588,10.588,0,0,1-3.279,3.952,14.639,14.639,0,0,1-5.15,2.317,27.258,27.258,0,0,1-6.637.755,29.427,29.427,0,0,1-6.184-.652,17.1,17.1,0,0,1-5.062-1.831v-6.269a27.54,27.54,0,0,0,5.564,1.893,26.309,26.309,0,0,0,5.6.59,18.166,18.166,0,0,0,3.279-.29,9.627,9.627,0,0,0,2.905-.983,5.554,5.554,0,0,0,2.058-1.893,5.324,5.324,0,0,0,.778-2.959Z" transform="translate(0)" fill="#1e3273" fill-rule="evenodd"/>
  </g>
</svg>
