<svg xmlns="http://www.w3.org/2000/svg" width="125" height="166.667" viewBox="0 0 125 166.667">
  <defs>
    <style>
      .cls-1 {
        fill: #fff;
      }
    </style>
  </defs>
  <path id="file-invoice-dollar" class="cls-1" d="M122.721,34.18,90.853,2.279A7.807,7.807,0,0,0,85.319,0H83.333V41.667H125V39.681A7.788,7.788,0,0,0,122.721,34.18Zm-49.8,10.091V0H7.813A7.794,7.794,0,0,0,0,7.813V158.854a7.794,7.794,0,0,0,7.813,7.813H117.188A7.794,7.794,0,0,0,125,158.854V52.083H80.729A7.835,7.835,0,0,1,72.917,44.271ZM20.833,23.438a2.6,2.6,0,0,1,2.6-2.6H49.479a2.6,2.6,0,0,1,2.6,2.6v5.208a2.6,2.6,0,0,1-2.6,2.6H23.438a2.6,2.6,0,0,1-2.6-2.6Zm0,26.042V44.271a2.6,2.6,0,0,1,2.6-2.6H49.479a2.6,2.6,0,0,1,2.6,2.6v5.208a2.6,2.6,0,0,1-2.6,2.6H23.438A2.6,2.6,0,0,1,20.833,49.479Zm46.875,85.9v7.852a2.6,2.6,0,0,1-2.6,2.6H59.9a2.6,2.6,0,0,1-2.6-2.6v-7.907a18.639,18.639,0,0,1-10.212-3.695,2.608,2.608,0,0,1-.186-3.952l3.825-3.649a2.672,2.672,0,0,1,3.3-.238A7.837,7.837,0,0,0,58.19,125h9.15a4.093,4.093,0,0,0,3.841-4.294,4.249,4.249,0,0,0-2.855-4.144l-14.648-4.395A14.732,14.732,0,0,1,43.4,98.044a14.5,14.5,0,0,1,13.89-14.671V75.521a2.6,2.6,0,0,1,2.6-2.6H65.1a2.6,2.6,0,0,1,2.6,2.6v7.907a18.614,18.614,0,0,1,10.212,3.695,2.608,2.608,0,0,1,.186,3.952l-3.825,3.649a2.672,2.672,0,0,1-3.3.238,7.808,7.808,0,0,0-4.173-1.211h-9.15a4.093,4.093,0,0,0-3.841,4.294,4.249,4.249,0,0,0,2.855,4.144l14.648,4.395A14.732,14.732,0,0,1,81.6,120.706a14.494,14.494,0,0,1-13.89,14.671Z"/>
</svg>
