<svg xmlns="http://www.w3.org/2000/svg" width="27.54" height="22.368" viewBox="0 0 27.54 22.368">
  <path id="twitter" d="M24.71,53.656c.017.245.017.489.017.734,0,7.462-5.679,16.059-16.059,16.059A15.951,15.951,0,0,1,0,67.916a11.679,11.679,0,0,0,1.363.07A11.3,11.3,0,0,0,8.37,65.574,5.654,5.654,0,0,1,3.093,61.66a7.117,7.117,0,0,0,1.066.087,5.97,5.97,0,0,0,1.485-.192,5.645,5.645,0,0,1-4.526-5.54v-.07a5.685,5.685,0,0,0,2.551.716,5.653,5.653,0,0,1-1.747-7.549A16.044,16.044,0,0,0,13.56,55.02a6.372,6.372,0,0,1-.14-1.293,5.65,5.65,0,0,1,9.768-3.862A11.113,11.113,0,0,0,26.772,48.5a5.629,5.629,0,0,1-2.481,3.111,11.315,11.315,0,0,0,3.25-.874,12.133,12.133,0,0,1-2.831,2.918Z" transform="translate(0 -48.082)" fill="#3f88c0"/>
</svg>
