<svg xmlns="http://www.w3.org/2000/svg" width="25.307" height="25.308" viewBox="0 0 25.307 25.308">
  <path id="whatsapp" d="M21.517,35.677A12.545,12.545,0,0,0,1.779,50.811L0,57.307l6.649-1.746a12.5,12.5,0,0,0,5.994,1.525h.006a12.461,12.461,0,0,0,8.869-21.41Zm-8.869,19.3a10.4,10.4,0,0,1-5.31-1.452L6.96,53.3,3.017,54.33l1.051-3.847-.249-.4a10.444,10.444,0,1,1,19.37-5.542A10.54,10.54,0,0,1,12.648,54.974Zm5.717-7.807c-.311-.158-1.853-.915-2.141-1.017s-.5-.158-.706.158-.808,1.017-.994,1.231-.367.237-.678.079a8.53,8.53,0,0,1-4.265-3.728c-.322-.554.322-.514.921-1.712a.581.581,0,0,0-.028-.548c-.079-.158-.706-1.7-.966-2.327-.254-.61-.514-.525-.706-.537s-.39-.011-.6-.011a1.161,1.161,0,0,0-.836.39,3.521,3.521,0,0,0-1.1,2.615A6.139,6.139,0,0,0,7.547,45,14,14,0,0,0,12.9,49.738c1.988.859,2.768.932,3.762.785a3.209,3.209,0,0,0,2.113-1.491,2.621,2.621,0,0,0,.181-1.491C18.885,47.4,18.676,47.32,18.365,47.168Z" transform="translate(0 -32)" fill="#fff"/>
</svg>
