<svg xmlns="http://www.w3.org/2000/svg" width="31.164" height="21.912" viewBox="0 0 31.164 21.912">
  <path id="youtube" d="M45.446,67.429a3.916,3.916,0,0,0-2.755-2.773C40.26,64,30.515,64,30.515,64s-9.745,0-12.176.655a3.916,3.916,0,0,0-2.755,2.773,44.09,44.09,0,0,0,0,15.1,3.857,3.857,0,0,0,2.755,2.729c2.43.655,12.176.655,12.176.655s9.745,0,12.176-.655a3.857,3.857,0,0,0,2.755-2.729,44.09,44.09,0,0,0,0-15.1ZM27.328,79.612V70.345l8.145,4.634-8.145,4.634Z" transform="translate(-14.933 -64)" fill="#3f88c0"/>
</svg>
